<svg xmlns="http://www.w3.org/2000/svg" xmlns:xlink="http://www.w3.org/1999/xlink" viewBox="0 0 241.43 135.21"><defs><linearGradient id="linear-gradient" x1="151.64" y1="129.19" x2="449.48" y2="129.19" gradientUnits="userSpaceOnUse"><stop offset="0" style="stop-color:#fff;stop-opacity:0"></stop><stop offset="1" style="stop-color: #000;stop-opacity:1;"></stop></linearGradient><linearGradient id="linear-gradient-2" x1="8.02" y1="129.19" x2="310.56" y2="129.19" xlink:href="#linear-gradient"/><linearGradient id="linear-gradient-3" x1="226.62" y1="172.56" x2="51.63" y2="-2.44" gradientUnits="userSpaceOnUse"><stop offset="0" stop-color="#2b88ac"/><stop offset="1" stop-color="#2a758f"/></linearGradient><linearGradient id="linear-gradient-4" x1="96.04" y1="31.37" x2="1.02" y2="147.59" gradientUnits="userSpaceOnUse"><stop offset="0" stop-color="#fff"/><stop offset="0.07" stop-color="#f0f0f0"/><stop offset="0.53" stop-color="#929292"/><stop offset="0.85" stop-color="#575757"/><stop offset="1" stop-color="#404040"/></linearGradient><radialGradient id="radial-gradient" cx="122.25" cy="43.59" r="92.31" gradientUnits="userSpaceOnUse"><stop offset="0" stop-color="#c6c6c6"/><stop offset="0.36" stop-color="#c9c9c9"/><stop offset="0.58" stop-color="#d1d1d1"/><stop offset="0.77" stop-color="#e0e0e0"/><stop offset="0.93" stop-color="#f4f4f4"/><stop offset="1" stop-color="#fff"/></radialGradient><linearGradient id="linear-gradient-5" x1="168.7" y1="130.95" x2="168.7" y2="73.68" gradientUnits="userSpaceOnUse"><stop offset="0" stop-color="#afafaf"/><stop offset="0.4" stop-color="#ccc"/><stop offset="1" stop-color="#fff"/></linearGradient><linearGradient id="linear-gradient-6" x1="206.02" y1="132.2" x2="188.63" y2="142.61" gradientTransform="translate(4.05 -25.05) rotate(2.12)" gradientUnits="userSpaceOnUse"><stop offset="0" stop-color="#0a6457"/><stop offset="1" stop-color="#05322c"/></linearGradient><linearGradient id="linear-gradient-7" x1="202.11" y1="136.66" x2="216.48" y2="145.54" xlink:href="#linear-gradient-6"/><linearGradient id="linear-gradient-8" x1="199.62" y1="136.69" x2="195.4" y2="148.89" xlink:href="#linear-gradient-6"/><linearGradient id="linear-gradient-9" x1="197.03" y1="125.86" x2="197.03" y2="70.95" xlink:href="#linear-gradient-5"/><linearGradient id="linear-gradient-10" x1="211.48" y1="125.86" x2="211.48" y2="70.95" xlink:href="#linear-gradient-5"/><linearGradient id="linear-gradient-11" x1="204.74" y1="73.74" x2="186.97" y2="82.79" gradientUnits="userSpaceOnUse"><stop offset="0" stop-color="#ffd1ae"/><stop offset="1" stop-color="#f9ac78"/></linearGradient><linearGradient id="linear-gradient-12" x1="195.65" y1="71.81" x2="213.77" y2="71.81" gradientUnits="userSpaceOnUse"><stop offset="0" stop-color="#101719"/><stop offset="1" stop-color="#243137"/></linearGradient><linearGradient id="linear-gradient-13" x1="222.39" y1="70.67" x2="136.33" y2="86.28" xlink:href="#linear-gradient-5"/><linearGradient id="linear-gradient-14" x1="1110.74" y1="-124.54" x2="1108.76" y2="-124.48" gradientTransform="matrix(-1, 0.05, 0.05, 1, 1287.66, 188.45)" xlink:href="#linear-gradient-12"/><linearGradient id="linear-gradient-15" x1="1110.33" y1="-123.73" x2="1122.67" y2="-123.73" gradientTransform="matrix(-1, 0.05, 0.05, 1, 1287.66, 188.45)" xlink:href="#linear-gradient-12"/><linearGradient id="linear-gradient-16" x1="1124.31" y1="-123.93" x2="1110.67" y2="-123.55" gradientTransform="matrix(-1, 0.05, 0.05, 1, 1287.66, 188.45)" gradientUnits="userSpaceOnUse"><stop offset="0" stop-color="#101719"/><stop offset="1" stop-color="#d0d2d2"/></linearGradient><linearGradient id="linear-gradient-17" x1="1112.16" y1="-123.73" x2="1122.67" y2="-123.73" gradientTransform="matrix(-1, 0.05, 0.05, 1, 1287.66, 188.45)" gradientUnits="userSpaceOnUse"><stop offset="0" stop-color="#a5cc42"/><stop offset="1" stop-color="#778e33"/></linearGradient><linearGradient id="linear-gradient-18" x1="1122.45" y1="-127.03" x2="1113.8" y2="-123.04" xlink:href="#linear-gradient-17"/><linearGradient id="linear-gradient-19" x1="1115.8" y1="-125.56" x2="1112.38" y2="-123.98" gradientTransform="matrix(-1, 0.05, 0.05, 1, 1287.66, 188.45)" xlink:href="#linear-gradient-12"/><linearGradient id="linear-gradient-20" x1="1167.21" y1="343.9" x2="1167.21" y2="335.14" gradientTransform="matrix(-0.89, -0.46, -0.46, 0.89, 1357.18, 356.13)" xlink:href="#linear-gradient-12"/><linearGradient id="linear-gradient-21" x1="-562.3" y1="391.45" x2="-572.07" y2="401.53" gradientTransform="translate(846.93 -10.12) rotate(24.34)" xlink:href="#linear-gradient-11"/><linearGradient id="linear-gradient-22" x1="175.11" y1="122.2" x2="201.33" y2="77.93" xlink:href="#linear-gradient-12"/><linearGradient id="linear-gradient-23" x1="158.78" y1="126.64" x2="206.9" y2="79.68" xlink:href="#linear-gradient-5"/><linearGradient id="linear-gradient-24" x1="1030.16" y1="-346.33" x2="1028.19" y2="-346.28" gradientTransform="matrix(-0.84, 0.54, 0.54, 0.84, 1248.26, -140.3)" xlink:href="#linear-gradient-12"/><linearGradient id="linear-gradient-25" x1="1029.76" y1="-345.52" x2="1042.1" y2="-345.52" gradientTransform="matrix(-0.84, 0.54, 0.54, 0.84, 1248.26, -140.3)" xlink:href="#linear-gradient-12"/><linearGradient id="linear-gradient-26" x1="1043.74" y1="-345.72" x2="1030.09" y2="-345.35" gradientTransform="matrix(-0.84, 0.54, 0.54, 0.84, 1248.26, -140.3)" xlink:href="#linear-gradient-16"/><linearGradient id="linear-gradient-27" x1="1031.59" y1="-345.52" x2="1042.1" y2="-345.52" gradientTransform="matrix(-0.84, 0.54, 0.54, 0.84, 1248.26, -140.3)" xlink:href="#linear-gradient-17"/><linearGradient id="linear-gradient-28" x1="1041.88" y1="-348.83" x2="1033.23" y2="-344.83" gradientTransform="matrix(-0.84, 0.54, 0.54, 0.84, 1248.26, -140.3)" xlink:href="#linear-gradient-17"/><linearGradient id="linear-gradient-29" x1="1035.22" y1="-347.36" x2="1031.81" y2="-345.78" gradientTransform="matrix(-0.84, 0.54, 0.54, 0.84, 1248.26, -140.3)" xlink:href="#linear-gradient-12"/><linearGradient id="linear-gradient-30" x1="1208.91" y1="109.87" x2="1208.91" y2="101.11" gradientTransform="matrix(-1, 0.04, 0.04, 1, 1391.33, -27.37)" xlink:href="#linear-gradient-12"/><linearGradient id="linear-gradient-31" x1="-591.06" y1="157.69" x2="-600.83" y2="167.77" gradientTransform="translate(766.43 -94.45) rotate(-5.4)" xlink:href="#linear-gradient-11"/><linearGradient id="linear-gradient-32" x1="201.66" y1="87.79" x2="177.6" y2="137.92" xlink:href="#linear-gradient-12"/><linearGradient id="linear-gradient-33" x1="184.91" y1="129.18" x2="208.05" y2="78.51" xlink:href="#linear-gradient-5"/><linearGradient id="linear-gradient-34" x1="190.89" y1="80.6" x2="185.69" y2="83.25" gradientUnits="userSpaceOnUse"><stop offset="0" stop-color="#d8d8d8"/><stop offset="0.38" stop-color="#dbdbdb"/><stop offset="0.65" stop-color="#e4e4e4"/><stop offset="0.88" stop-color="#f4f4f4"/><stop offset="1" stop-color="#fff"/></linearGradient><linearGradient id="linear-gradient-35" x1="208.75" y1="65.14" x2="201.11" y2="94.83" gradientTransform="matrix(1, 0, 0, 1, 0, 0)" xlink:href="#linear-gradient-17"/><linearGradient id="linear-gradient-36" x1="205.72" y1="78.19" x2="202.56" y2="91.22" xlink:href="#linear-gradient-5"/><linearGradient id="linear-gradient-37" x1="204.76" y1="96.13" x2="204.76" y2="50.12" xlink:href="#linear-gradient-5"/><linearGradient id="linear-gradient-38" x1="213.39" y1="73.58" x2="195.46" y2="82.72" xlink:href="#linear-gradient-11"/><linearGradient id="linear-gradient-39" x1="204.69" y1="74.03" x2="232.33" y2="74.03" xlink:href="#linear-gradient-12"/><linearGradient id="linear-gradient-40" x1="205.98" y1="71.13" x2="202.98" y2="56.25" xlink:href="#linear-gradient-11"/><linearGradient id="linear-gradient-41" x1="198.51" y1="63.93" x2="203.87" y2="60.21" xlink:href="#linear-gradient-5"/><linearGradient id="linear-gradient-42" x1="205.8" y1="68.36" x2="202.71" y2="53.06" xlink:href="#linear-gradient-12"/><linearGradient id="linear-gradient-43" x1="198.18" y1="59.14" x2="205.08" y2="54.36" xlink:href="#linear-gradient-5"/><linearGradient id="linear-gradient-44" x1="202.15" y1="68.45" x2="205.61" y2="66.05" xlink:href="#linear-gradient-12"/><linearGradient id="linear-gradient-45" x1="201.7" y1="67.27" x2="202.63" y2="66.62" xlink:href="#linear-gradient-12"/><linearGradient id="linear-gradient-46" x1="189.07" y1="90.31" x2="216.25" y2="60.46" xlink:href="#linear-gradient-5"/><linearGradient id="linear-gradient-47" x1="222.22" y1="130.95" x2="222.22" y2="73.68" xlink:href="#linear-gradient-5"/><linearGradient id="linear-gradient-48" x1="239.11" y1="84.84" x2="145.29" y2="84.84" xlink:href="#linear-gradient-5"/><linearGradient id="linear-gradient-49" x1="1719.5" y1="97.87" x2="1719.5" y2="63.52" gradientTransform="matrix(-1, 0, 0, 1, 1911.67, 0)" gradientUnits="userSpaceOnUse"><stop offset="0" stop-color="#a0a0a0"/><stop offset="0.27" stop-color="#a3a3a3"/><stop offset="0.47" stop-color="#acacac"/><stop offset="0.63" stop-color="#bcbcbc"/><stop offset="0.79" stop-color="#d2d2d2"/><stop offset="0.93" stop-color="#eee"/><stop offset="1" stop-color="#fff"/></linearGradient><linearGradient id="linear-gradient-50" x1="175.23" y1="81.59" x2="175.23" y2="63.08" xlink:href="#linear-gradient-34"/><linearGradient id="linear-gradient-51" x1="176.45" y1="67.35" x2="173.79" y2="78.34" xlink:href="#linear-gradient-34"/><linearGradient id="linear-gradient-52" x1="178.73" y1="91.04" x2="178.73" y2="66.75" xlink:href="#linear-gradient-34"/><linearGradient id="linear-gradient-53" x1="199.1" y1="87.48" x2="199.1" y2="80.2" gradientUnits="userSpaceOnUse"><stop offset="0" stop-color="#aaa"/><stop offset="0.28" stop-color="#adadad"/><stop offset="0.48" stop-color="#b6b6b6"/><stop offset="0.66" stop-color="#c6c6c6"/><stop offset="0.82" stop-color="#dcdcdc"/><stop offset="0.97" stop-color="#f8f8f8"/><stop offset="1" stop-color="#fff"/></linearGradient><linearGradient id="linear-gradient-54" x1="219.54" y1="86.61" x2="219.54" y2="66.35" xlink:href="#linear-gradient-53"/><linearGradient id="linear-gradient-55" x1="208.96" y1="88.54" x2="208.96" y2="71.18" xlink:href="#linear-gradient-53"/><linearGradient id="linear-gradient-56" x1="47.33" y1="143.74" x2="47.33" y2="56.92" xlink:href="#linear-gradient-34"/><linearGradient id="linear-gradient-57" x1="138.16" y1="27.67" x2="127.25" y2="50.63" gradientUnits="userSpaceOnUse"><stop offset="0" stop-color="#9bca65"/><stop offset="0.1" stop-color="#8eb55a"/><stop offset="0.54" stop-color="#51572a"/><stop offset="0.85" stop-color="#2c1c0c"/><stop offset="1" stop-color="#1d0500"/></linearGradient><linearGradient id="linear-gradient-58" x1="96.41" y1="32.29" x2="112.42" y2="47.3" xlink:href="#linear-gradient-57"/><linearGradient id="linear-gradient-59" x1="81.5" y1="29.01" x2="123.32" y2="44.25" gradientUnits="userSpaceOnUse"><stop offset="0" stop-color="#fdfdfd"/><stop offset="0.07" stop-color="#ededed"/><stop offset="0.53" stop-color="#8f8f8f"/><stop offset="0.85" stop-color="#545454"/><stop offset="1" stop-color="#3d3d3d"/></linearGradient><linearGradient id="linear-gradient-60" x1="87.61" y1="27.84" x2="121.05" y2="28.02" xlink:href="#linear-gradient-5"/><linearGradient id="linear-gradient-61" x1="87.26" y1="30.39" x2="120.56" y2="30.56" xlink:href="#linear-gradient-5"/><linearGradient id="linear-gradient-62" x1="86.91" y1="32.93" x2="120.05" y2="33.11" xlink:href="#linear-gradient-5"/><linearGradient id="linear-gradient-63" x1="86.61" y1="35.5" x2="119.53" y2="35.68" xlink:href="#linear-gradient-5"/><linearGradient id="linear-gradient-64" x1="86.26" y1="38.05" x2="119.03" y2="38.22" xlink:href="#linear-gradient-5"/><linearGradient id="linear-gradient-65" x1="85.91" y1="40.59" x2="118.53" y2="40.76" xlink:href="#linear-gradient-5"/><linearGradient id="linear-gradient-66" x1="104.84" y1="30.31" x2="74.06" y2="30.31" xlink:href="#linear-gradient-5"/><linearGradient id="linear-gradient-67" x1="123.29" y1="59.12" x2="99.31" y2="34.04" xlink:href="#linear-gradient-5"/><radialGradient id="radial-gradient-2" cx="164.54" cy="73.55" r="2.11" gradientUnits="userSpaceOnUse"><stop offset="0.18" stop-color="#fff"/><stop offset="0.3" stop-color="#31ff31"/><stop offset="1" stop-color="#08ff0d" stop-opacity="0"/></radialGradient><radialGradient id="radial-gradient-3" cx="104.23" cy="106.95" r="2.11" xlink:href="#radial-gradient-2"/></defs><title>Hero_image_recoloured</title><g style="isolation:isolate"><g id="Static"><path d="M238.2,129.19c0,1.65-20.85,3-46.57,3s-46.57-1.34-46.57-3,20.85-3,46.57-3S238.2,127.54,238.2,129.19Z" fill="url(#linear-gradient)" style="mix-blend-mode:multiply"/><path d="M95.94,129.19c0,1.65-21.18,3-47.31,3s-47.3-1.34-47.3-3,21.18-3,47.3-3S95.94,127.54,95.94,129.19Z" fill="url(#linear-gradient-2)" style="mix-blend-mode:multiply"/><path d="M100.34,128.71s87.15,8,114.13-24.92c26-31.77,24.93-63.16-17.73-70.36-37.15-6.28-46.82-5.66-69.22-14.88C95.16,5.21,36.08-19.2,17.8,39,.66,93.49,50.49,128.71,100.34,128.71Z" fill="url(#linear-gradient-3)"/><path d="M85.85,53.68l0-.08a7.6,7.6,0,0,0-2.32-4.94l-.19-.17a8.79,8.79,0,0,0-.88-.69,4,4,0,0,0-.46-.27,7.68,7.68,0,0,0-.81-.41,5.25,5.25,0,0,0-.67-.22l-.12,0a4,4,0,0,0-.62-.17,7,7,0,0,0-1.51-.16H16.41l-.6,0c-9.32,44.8,27.52,75.09,69.34,81.06a7.63,7.63,0,0,0,.69-2.76,3.25,3.25,0,0,0,0-.44V54.15c0-.12,0-.24,0-.36Z" fill="url(#linear-gradient-4)" style="mix-blend-mode:multiply"/><path d="M206.69,75.86h2.89V68.15c0-.11,0-.21,0-.32h22.1c.09-1,.13-1.94.13-2.89H211a4.32,4.32,0,0,1,2.89-1.12h17.91a27.26,27.26,0,0,0-.23-2.89H213.92a7.22,7.22,0,0,0-6.46,4H181.82V44.39h11.87V51.3a7.23,7.23,0,0,0,7.22,7.22h30.28a28.06,28.06,0,0,0-.81-2.89H200.91a4.34,4.34,0,0,1-4.33-4.33V44.39h26.26a33.78,33.78,0,0,0-3.73-2.89H166.4V28.7l-2.87-.45c0,.09,0,.17,0,.25v13H159v-14L156.13,27V41.5h-22v2.89h16.53V64.94H130.45V48.41h-2.89V88.86a7.23,7.23,0,0,0,7.22,7.22h85.48c.66-1,1.29-1.93,1.9-2.89h-51.1V89.34c0-1.14,1.85-2.41,4.33-2.41h50.35c.5-1,1-1.93,1.41-2.89H175.39c-4,0-7.22,2.33-7.22,5.3v3.85H153.56V83.08h74c.43-1,.82-1.93,1.18-2.89h-75.2V67.83h25.36v4a7.23,7.23,0,0,0,7.23,7.22h43c.34-1,.66-1.93.94-2.88h-44a4.34,4.34,0,0,1-4.33-4.34v-4h24.89c0,.11,0,.21,0,.32Zm-56,17.33H134.78a4.33,4.33,0,0,1-4.33-4.33v-21h7.38v8a7.23,7.23,0,0,0,7.23,7.22h5.61Zm0-13h-5.61a4.35,4.35,0,0,1-4.34-4.33v-8h9.95Zm28.25-15.25H153.56V44.39h25.36Zm-48.31,38.6v4.1h-5.94V49.69h-2.89v58H114.4V53.22h-2.89v54.42H47.46a4.34,4.34,0,0,1-4.33-4.34v-.48H86a7.23,7.23,0,0,0,7.22-7.22V68.47h5.94a7.23,7.23,0,0,0,7.22-7.22V49.37h-2.89V61.25a4.33,4.33,0,0,1-4.33,4.33H82.29V59a7.23,7.23,0,0,0-7.22-7.22H33.82V36.37H46v6.26a7.23,7.23,0,0,0,7.22,7.22h48.48V47H53.24a4.33,4.33,0,0,1-4.33-4.33V36.37H62.39v.8a7.23,7.23,0,0,0,7.22,7.22h31.46V41.5H79.41V30.11a7.25,7.25,0,0,0-7.23-7.23h-6.9V18.07H91.44a4.34,4.34,0,0,1,4.34,4.33v18h2.89v-18a7.23,7.23,0,0,0-7.23-7.22H65.28V10.84h38.31V38.89h2.89v-28h1.45c-2.79-1-5.64-2-8.55-2.88H65.28V4.26H85.6C73.05,1.55,60.27.77,49,4.26H62.39V15.18H48.91V4.29c-1,.3-1.94.64-2.89,1v9.88H33.82V12.62a43.37,43.37,0,0,0-5.27,5.45h2.38v4.81H25.07c-.58.93-1.15,1.9-1.7,2.89h7.56v7.71H19.74c-.37.94-.73,1.9-1.08,2.89H30.93V51.78h-16c-.13,1-.23,1.93-.32,2.89H75.07A4.34,4.34,0,0,1,79.41,59v6.58H14.58c.09,1,.21,1.94.33,2.89H40.24v6.42H16.17c.25,1,.52,1.94.82,2.89H40.24v7.71H20c.47,1,1,1.94,1.49,2.89H40.24V99.93H29.72c.88,1,1.78,1.95,2.72,2.89h7.8v.48a7.23,7.23,0,0,0,7.22,7.23h63.88a4.33,4.33,0,0,1-4.17,3.21H46.24c1.62,1,3.27,2,5,2.89h56a7.23,7.23,0,0,0,7.13-6.1h7.48v14.6a4.33,4.33,0,0,1-4.33,4.34h-2.21c2.42.06,5.06.09,7.9.09a7.2,7.2,0,0,0,1.53-4.43v-14.6h14.61v4.81a7.22,7.22,0,0,0,7.22,7.22H182c2.94-.85,5.81-1.81,8.58-2.88H146.5a4.34,4.34,0,0,1-4.33-4.34v-4.81h65.26c1.19-.92,2.33-1.89,3.4-2.89H133.5v-4.1c0-1.69,2-3.13,4.33-3.13h79.3c.73-1,1.44-1.92,2.12-2.89H137.83C133.85,97.52,130.61,100.22,130.61,103.54ZM65.28,25.77h6.9a4.34,4.34,0,0,1,4.33,4.34V41.5h-6.9a4.34,4.34,0,0,1-4.33-4.33Zm-16.37-7.7H62.39v4.81H48.91Zm0,7.7H62.39v7.71H48.91Zm-15.09-7.7H46v4.81H33.82Zm0,7.7H46v7.71H33.82Zm36.27,42.7H90.32v6.42H70.09Zm-27,0H67.21v6.42H43.13Zm0,9.31H67.21v3.37a4.35,4.35,0,0,1-4.34,4.34H43.13Zm0,10.6H62.87a7.24,7.24,0,0,0,7.22-7.23V77.78H90.32V95.6A4.33,4.33,0,0,1,86,99.93H43.13Z" fill="url(#radial-gradient)" style="mix-blend-mode:multiply"/><path d="M169,99.68V86.09a1.2,1.2,0,0,0-1.19-1.2h-.4a1.21,1.21,0,0,0-1.2,1.2V99.68Z" fill="#083d33"/><path d="M170.09,116.49V100.76A2.15,2.15,0,0,0,168,98.62h-.7a2.16,2.16,0,0,0-2.15,2.14v15.73Z" fill="#0e5648"/><path d="M170.9,129.15v-13.6a2.84,2.84,0,0,0-2.83-2.83h-.94a2.85,2.85,0,0,0-2.84,2.83v13.6Z" fill="#157764"/><path d="M170.09,113.58V100.76a2.12,2.12,0,0,0-1.1-1.85V86.09a1.2,1.2,0,0,0-1.19-1.2h-.4a1.19,1.19,0,0,0-.9.44,1.17,1.17,0,0,1,.3.76V98.91a2.13,2.13,0,0,1,1.09,1.85v12.82a2.82,2.82,0,0,1,.81,2v13.6h2.2v-13.6A2.82,2.82,0,0,0,170.09,113.58Z" fill="url(#linear-gradient-5)" style="mix-blend-mode:multiply"/><path d="M203.81,125.38,199.93,116a.91.91,0,0,0-.7-.48l-.11,4.92,0-.09,3,5.85a.92.92,0,1,0,1.64-.85Z" fill="#094c41"/><path d="M204.67,126.1a1.68,1.68,0,1,1-1.61-1.74A1.66,1.66,0,0,1,204.67,126.1Z" fill="#0a6457"/><path d="M203.94,126.07a.95.95,0,1,1-.91-1A.94.94,0,0,1,203.94,126.07Z" fill="#07493e"/><path d="M198.6,115.68l-11.25,9.14a.93.93,0,1,0,1,1.55l10.7-7,.08-3.85A.9.9,0,0,0,198.6,115.68Z" fill="url(#linear-gradient-6)"/><path d="M210.65,125.67l-11-10a1,1,0,0,0-.51-.18l-.08,3.85,10.47,7.78a.93.93,0,0,0,.52.18.92.92,0,0,0,.77-.37A.94.94,0,0,0,210.65,125.67Z" fill="url(#linear-gradient-7)"/><path d="M199.08,115.53a.94.94,0,0,0-.82.54l-4.21,11.1a.92.92,0,0,0,.47,1.22.86.86,0,0,0,.34.09.92.92,0,0,0,.88-.55l3.78-8.31-.29-4.07Z" fill="url(#linear-gradient-8)"/><path d="M196.57,127.62a1.68,1.68,0,1,1-1.61-1.74A1.68,1.68,0,0,1,196.57,127.62Z" fill="#0a6457"/><path d="M211.77,126.48a1.68,1.68,0,1,1-1.61-1.74A1.67,1.67,0,0,1,211.77,126.48Z" fill="#0a6457"/><path d="M189.53,125.66a1.68,1.68,0,1,1-1.61-1.74A1.67,1.67,0,0,1,189.53,125.66Z" fill="#0a6457"/><path d="M188.8,125.63a1,1,0,0,1-1,.91.95.95,0,1,1,.07-1.89A1,1,0,0,1,188.8,125.63Z" fill="#07493e"/><path d="M195.84,127.59a.95.95,0,1,1-.91-1A.95.95,0,0,1,195.84,127.59Z" fill="#07493e"/><path d="M211,126.45a.95.95,0,1,1-.91-1A.95.95,0,0,1,211,126.45Z" fill="#07493e"/><path d="M197.65,109.63v7c0,.67.54,3,1.22,3h.4c.68,0,1.23-2.35,1.23-3v-7Z" fill="#0a6457"/><path d="M196.72,99.57v9.69a2,2,0,0,0,2,2h.67a2,2,0,0,0,2-2V99.57Z" fill="#0f8773"/><polygon points="216.51 68.36 204.97 68.36 204.97 96.76 214.34 96.76 216.3 84.9 216.51 68.36" fill="#2facd3" style="mix-blend-mode:multiply"/><path d="M183.45,98.09h15.07a1.17,1.17,0,0,1,1.17,1.17v.38a1.17,1.17,0,0,1-1.17,1.17H183.44a1.16,1.16,0,0,1-1.16-1.16v-.39a1.17,1.17,0,0,1,1.17-1.17Z" fill="#1e798e"/><path d="M214.34,96.76a1.26,1.26,0,0,1-.7-.2,1.35,1.35,0,0,1-.46-1.86h0a18.08,18.08,0,0,0,2-7.69c.23-5,0-17.14,0-17.26a1.35,1.35,0,0,1,1.33-1.38h0a1.35,1.35,0,0,1,1.35,1.33c0,.5.23,12.36,0,17.43a20.4,20.4,0,0,1-2.39,9A1.36,1.36,0,0,1,214.34,96.76Z" fill="#0f9682"/><path d="M196.18,98.09h14.29a1.16,1.16,0,0,1,1.16,1.16v.39a1.16,1.16,0,0,1-1.16,1.16H196.18A1.16,1.16,0,0,1,195,99.64v-.38A1.17,1.17,0,0,1,196.18,98.09Z" fill="#0f9682"/><g style="mix-blend-mode:multiply"><path d="M210.16,124.74a1.86,1.86,0,0,0-.48.06l-9.18-8.33v-5.53a2,2,0,0,0,.92-1.68v-8.45h9.05a1.18,1.18,0,0,0,1.17-1.17v-.38a1.17,1.17,0,0,0-1.17-1.17h-27a1.17,1.17,0,0,0-1.16,1.17v.38a1.18,1.18,0,0,0,1.16,1.17h13.28v8.45a2,2,0,0,0,.93,1.69v5.5L188.36,124a1.56,1.56,0,0,0-.44-.08,1.68,1.68,0,1,0,1.61,1.74s0,0,0,0l6.8-4.44-1.8,4.75a1.68,1.68,0,1,0,2,1.7,1.72,1.72,0,0,0-.25-1l2.84-6.27,2.44,4.73a1.66,1.66,0,0,0,1.33,2.59,1.66,1.66,0,0,0,1.74-1.61,1.69,1.69,0,0,0-1.26-1.69l-1.09-2.61,6.1,4.53v0a1.68,1.68,0,1,0,1.74-1.61Z" fill="url(#linear-gradient-9)"/><path d="M217.89,69.7a1.35,1.35,0,0,0-1.35-1.33H205V96.76h9.37a1.36,1.36,0,0,0,1.16-.65,20.4,20.4,0,0,0,2.39-9C218.12,82.06,217.9,70.2,217.89,69.7Z" fill="url(#linear-gradient-10)"/></g><path d="M196.47,77.16s-.36,2.26-.78,2.26-10.81,1.68-12.21,1.68-2.25-1.14-4.42-1-4.14,2-3.14,2.37c.75.25,1.87.14,3.2.53s1.31.21,4,.44,14.91.44,16.17.13,2.48-3.52,2.55-4.22S196.82,76.93,196.47,77.16Z" fill="url(#linear-gradient-11)"/><path d="M200.92,65.87s-3,.15-4,5.36a32.69,32.69,0,0,1-1.62,5.93,8.88,8.88,0,0,0,3.78.51C200.38,77.32,200.92,65.87,200.92,65.87Z" fill="url(#linear-gradient-12)"/><path d="M198.8,83.65c.41-1.36,1-3.37,1.61-5.3-.5-.22-1.08-.44-1.64-.63l.26,0c1.35-.35,1.89-11.8,1.89-11.8s-3,.15-4,5.36c-.08.39-.16.76-.23,1.11a34.15,34.15,0,0,1,.27,5.48c-.23,1.85.77,2.62-3.55,2.85s-9.71,1.7-11.49,1.31-4.32-1.39-6.11-.14c-.17.3-.14.55.16.64.75.25,1.87.14,3.2.53s1.31.21,4,.44C185.66,83.66,196.11,83.86,198.8,83.65Z" fill="url(#linear-gradient-13)" style="mix-blend-mode:multiply"/><path d="M172.5,117.88s.95-.94,1.31-.37-1.14.57-1.37.9S172.5,117.88,172.5,117.88Z" fill="url(#linear-gradient-14)"/><path d="M169.51,116.18a13.15,13.15,0,0,0-4.93-.15c-2.58.45-2.9-.84-3.85,0s-1,2.78,1.68,3.7,7.8,2.68,7.92,2.6,2.31-3.84,2.17-4.45S169.81,116,169.51,116.18Z" fill="url(#linear-gradient-15)"/><path d="M160.73,116c1-.84,1.27.45,3.85,0a13.15,13.15,0,0,1,4.93.15s-.49,2.27-3.54,2.24-3.37-2.36-4.58-2-.94,1.72,0,2.45,7.9,2.51,9.42,2.59a8.69,8.69,0,0,1-.52.85c-.12.08-5.22-1.68-7.92-2.6S159.78,116.88,160.73,116Z" fill="url(#linear-gradient-16)" style="mix-blend-mode:multiply"/><path d="M160.73,116c1-.84,1.27.45,3.85,0a13.15,13.15,0,0,1,4.93.15s-.49,2.27-3.54,2.24-3.37-2.36-4.58-2-.94,1.72,0,2.45,7.9,2.51,9.42,2.59a8.69,8.69,0,0,1-.52.85c-.12.08-5.22-1.68-7.92-2.6S159.78,116.88,160.73,116Z" fill="url(#linear-gradient-17)"/><path d="M161.49,117c.94-.29.87,1.31,4,1.91a20.92,20.92,0,0,0,6.79-.12c-.16.37-.38.81-.61,1.26a23,23,0,0,1-6.94-.35C161.82,119,160.56,117.31,161.49,117Z" fill="url(#linear-gradient-18)"/><path d="M169.92,116.76a3.54,3.54,0,0,1-1.26,1.4,4.09,4.09,0,0,1-1.72.53,11.41,11.41,0,0,0,3.29-.07,5.69,5.69,0,0,0,1.6-.63l-2.48.37A3.86,3.86,0,0,0,169.92,116.76Z" fill="url(#linear-gradient-19)" style="mix-blend-mode:multiply"/><path d="M164.15,116.09a6.75,6.75,0,0,0,.11,1.19.2.2,0,0,0,.2.16h0a.2.2,0,0,0,.15-.23,6.86,6.86,0,0,1-.1-1.16Zm-.83,0a4.21,4.21,0,0,0,.1.8.2.2,0,0,0,.2.16h0a.21.21,0,0,0,.16-.24,4.61,4.61,0,0,1-.08-.72Zm2.58.13a4.38,4.38,0,0,0,.11,1.11.18.18,0,0,0,.2.15h0a.2.2,0,0,0,.14-.24,5,5,0,0,1-.09-1,2.28,2.28,0,0,1,0-.38l-.4,0A2.16,2.16,0,0,0,165.9,116.26Zm-1,0a6.36,6.36,0,0,0,.11,1.24.19.19,0,0,0,.2.15h0a.21.21,0,0,0,.16-.24,5.64,5.64,0,0,1-.1-1.16c0-.13,0-.23,0-.33l-.4,0A2.53,2.53,0,0,0,164.94,116.27Zm3-.34a5,5,0,0,0-.08,1,.19.19,0,0,0,.21.19.2.2,0,0,0,.19-.21,5.53,5.53,0,0,1,.08-.92Zm-1,.17a5.67,5.67,0,0,0,0,1.13.21.21,0,0,0,.21.17h0a.21.21,0,0,0,.18-.23,5.55,5.55,0,0,1,0-1,1.64,1.64,0,0,1,0-.25l-.4,0C167,116,167,116,167,116.1Z" fill="url(#linear-gradient-20)"/><path d="M171.18,112.52l-1.44,3.66s-.83,1.26,1,2.06c1,.44,1.34-.07,1.34-.07s2-3,2.16-4.11C174.4,113.22,171.18,112.52,171.18,112.52Z" fill="url(#linear-gradient-21)"/><path d="M182.93,89.79c3.22-1.38,7.87-1.41,13.88-2.93s9.59,4,6.67,7.53-15.94,2.3-15.94,2.3l-13.3,19.53-4.1-2.07S180.3,90.91,182.93,89.79Z" fill="url(#linear-gradient-22)"/><path d="M197.37,87.46S189.43,88.62,186.5,91s-13.26,22.51-15.81,25.83c-2.35,3.06-9,2.7-10.16-.59-.74.92-.6,2.63,1.88,3.48,2.7.92,7.8,2.68,7.92,2.6s0,0,0-.07l0,0a30.31,30.31,0,0,0,1.55-2.79.31.31,0,0,1,.05-.1c.08-.18.16-.36.24-.52a0,0,0,0,1,0,0h0c0-.11.09-.22.12-.32a.22.22,0,0,0,.07-.07c.23-.33,1.73-.34,1.37-.9s-1.31.37-1.31.37a.38.38,0,0,0-.09-.18c.28-.45.71-1.15,1.09-1.85l.74.37,13.3-19.53a51.27,51.27,0,0,0,11.08-.24c.42-1.06.68-1.7.68-1.7l4.63-5.09Z" fill="url(#linear-gradient-23)" style="mix-blend-mode:multiply"/><path d="M193.76,121.25s.36-1.28,1-1-.71,1.06-.75,1.46S193.76,121.25,193.76,121.25Z" fill="url(#linear-gradient-24)"/><path d="M190.32,121.26a13.16,13.16,0,0,0-4.35,2.32c-2,1.67-2.93.7-3.34,1.91s.5,2.91,3.29,2.37,8.1-1.54,8.16-1.67.1-4.48-.32-4.94S190.48,120.93,190.32,121.26Z" fill="url(#linear-gradient-25)"/><path d="M182.63,125.49c.41-1.21,1.33-.24,3.34-1.91a13.16,13.16,0,0,1,4.35-2.32s.7,2.21-2,3.7-4.1-.38-5,.56,0,2,1.26,2.1,8.09-1.74,9.46-2.42a6.65,6.65,0,0,1,0,1c-.06.13-5.36,1.13-8.16,1.67S182.21,126.69,182.63,125.49Z" fill="url(#linear-gradient-26)" style="mix-blend-mode:multiply"/><path d="M182.63,125.49c.41-1.21,1.33-.24,3.34-1.91a13.16,13.16,0,0,1,4.35-2.32s.7,2.21-2,3.7-4.1-.38-5,.56,0,2,1.26,2.1,8.09-1.74,9.46-2.42a6.65,6.65,0,0,1,0,1c-.06.13-5.36,1.13-8.16,1.67S182.21,126.69,182.63,125.49Z" fill="url(#linear-gradient-27)"/><path d="M183.78,126c.66-.72,1.39.71,4.39-.31a20.83,20.83,0,0,0,5.83-3.48c.05.41.08.9.09,1.4a22.63,22.63,0,0,1-6.19,3.14C185.05,127.55,183.11,126.68,183.78,126Z" fill="url(#linear-gradient-28)"/><path d="M191,121.56a3.71,3.71,0,0,1-.41,1.84,3.93,3.93,0,0,1-1.22,1.31,11.23,11.23,0,0,0,2.81-1.69,5.71,5.71,0,0,0,1.09-1.34l-2,1.55A3.79,3.79,0,0,0,191,121.56Z" fill="url(#linear-gradient-29)" style="mix-blend-mode:multiply"/><path d="M185.63,123.84a6.37,6.37,0,0,0,.68,1,.2.2,0,0,0,.25,0l0,0a.2.2,0,0,0,0-.28,5.33,5.33,0,0,1-.66-1Zm-.71.44a6.55,6.55,0,0,0,.48.65.2.2,0,0,0,.26,0l0,0a.2.2,0,0,0,0-.28,6.39,6.39,0,0,1-.43-.59C185.15,124.16,185,124.22,184.92,124.28Zm2.3-1.16a5,5,0,0,0,.65.91.2.2,0,0,0,.25,0l0,0a.19.19,0,0,0,0-.28,5.3,5.3,0,0,1-.6-.85,2.62,2.62,0,0,1-.17-.33l-.34.21Zm-.82.48a6.7,6.7,0,0,0,.7,1,.2.2,0,0,0,.26,0s0,0,0,0a.21.21,0,0,0,0-.29,6.25,6.25,0,0,1-.66-.95c-.07-.11-.11-.2-.16-.29l-.32.24C186.31,123.43,186.34,123.51,186.4,123.6Zm2.45-1.79a5.65,5.65,0,0,0,.42.9.21.21,0,0,0,.28.06.2.2,0,0,0,.06-.27,5.42,5.42,0,0,1-.39-.84Zm-.78.64a5.53,5.53,0,0,0,.56,1,.2.2,0,0,0,.26,0h0a.2.2,0,0,0,0-.28,4.73,4.73,0,0,1-.51-.9l-.1-.24-.35.19A1.8,1.8,0,0,0,188.07,122.45Z" fill="url(#linear-gradient-30)"/><path d="M190,117.25l.56,3.89s-.1,1.51,1.91,1.29c1.09-.13,1.13-.73,1.13-.73s.22-3.58-.17-4.64C193.1,116.26,190,117.25,190,117.25Z" fill="url(#linear-gradient-31)"/><path d="M202.83,88.46s-13.09-.2-15.33,3.59,2.33,26.4,2.33,26.4l3.94.33.55-20.68s15.56,1.35,16.7-4.84S202.83,88.46,202.83,88.46Z" fill="url(#linear-gradient-32)"/><path d="M194.32,98.1s15.56,1.35,16.7-4.84a3.65,3.65,0,0,0-.7-3.25l-2.07.54s-1,2.39-7,2.46-10,.23-10.26,1.39,1.08,25,.93,27.76-6.74,5.78-8.5,3.36a5,5,0,0,1-.36-.6,1,1,0,0,0-.41.57c-.42,1.2.5,2.91,3.29,2.37s8.1-1.54,8.16-1.67a23.37,23.37,0,0,0,0-3.31.28.28,0,0,0,0-.09c0-.36-.06-.69-.1-1a.22.22,0,0,0,0-.1c0-.4,1.34-1.15.75-1.46s-1,1-1,1a.45.45,0,0,0-.17-.11c0-.58,0-1.51,0-2.37h.16Z" fill="url(#linear-gradient-33)" style="mix-blend-mode:multiply"/><path d="M190.53,83.55a4.13,4.13,0,0,0-7.91,0Z" fill="url(#linear-gradient-34)"/><path d="M197.84,72.73c-.47-2.75.4-6,2-6.57,1.91-.74,6.27-.8,6.27-.8s4.17.73,5.42,2.28c2.77,3.47,1.91,12.11,1.17,18.1s-1.21,7.33-1.93,8.24c-.3.36-2.22-3.31-5-4.17-2.6-.81-11.55-2.39-11.55-2.39S200.23,86.84,197.84,72.73Z" fill="url(#linear-gradient-35)"/><path d="M212.66,80.63c-1,0-1.16,5.44-2.2,5.44s1.16-6-.05-5.9-1.16,6.71-2.08,6.54.57-5.67-.47-5.79.17,3.07-1.56,3,.81-6.65-.12-6.48-.86,1.68-2.08,2.2-.63-4.74-1.56-4.68-.7,2.54-1.45,3.47-1.21-1.91-1.38-3.3-1.33-2.54-1.28-.86a18,18,0,0,1-.1,2.53c.69,10.2-4.12,10.67-4.12,10.67s8.95,1.58,11.55,2.39c2.75.86,4.67,4.53,5,4.17.72-.91,1.2-2.24,1.93-8.24.17-1.31.33-2.75.46-4.24C213,81,212.88,80.63,212.66,80.63Z" fill="url(#linear-gradient-36)" style="mix-blend-mode:multiply"/><path d="M211.49,67.64c-1.25-1.55-5.42-2.28-5.42-2.28s-4.36.06-6.27.8c-1.15.44-1.93,2.32-2.07,4.38.39-1.41,1.08-3.51,1.92-3.7,1.27-.29,1.36,2,3.15,2s3.21-2.69,4.25-2.58,1.7.72.39,3.31-4.24,7.36-4.24,7.75,0,2.16-.62,2.47a29.56,29.56,0,0,1-3.63.88s-1,3-.46,3.2,8.52,1.31,9.72,1,2-3.47,2.35-3.78a3.05,3.05,0,0,1,1.16-.43,30.54,30.54,0,0,1-2.3,8.77,1,1,0,0,0-.17.26c-.64,1.33-3.76-1-6.13-1.68-1.7-.46-5.29-.09-7-.22,2.77.52,7.79,1.47,9.64,2a6.52,6.52,0,0,1,2.43,1.52h0c1.41,1.33,2.34,2.89,2.54,2.65.72-.91,1.2-2.24,1.93-8.24S214.26,71.11,211.49,67.64Z" fill="url(#linear-gradient-37)" style="mix-blend-mode:multiply"/><path d="M205,77.16s-1.66,3.24-2.1,3.24-9.88.7-11.32.7-2.05-1.51-4.29-1.35-4.31,1.68-3.27,2c.78.25,2-.69,3.4-.31s1,1.78,3.82,2,15.52.85,16.82.54,2.46-3.93,2.53-4.63S205.33,76.93,205,77.16Z" fill="url(#linear-gradient-38)"/><path d="M204.08,77.43a12.49,12.49,0,0,0,4.4,2.86c2.08.54,2.85-.08,2.85-.08A46.3,46.3,0,0,0,212.72,74c.08-1.62-.62-6.09-2.47-6.48S205.32,75,204.08,77.43Z" fill="url(#linear-gradient-39)"/><path d="M199.29,56.43s-.52,6,.88,7.08,2,.76,2,.76a4.79,4.79,0,0,1,.24,1.13c0,.41-.9,1.48.2,1.93,2.24.93,3.36-1.66,3.58-1.81s.16-2.31,1.07-5,1.31-5.17-2.37-6.07A5.19,5.19,0,0,0,199.29,56.43Z" fill="url(#linear-gradient-40)"/><path d="M203.38,64.24a7.07,7.07,0,0,0,2.37-2,11.79,11.79,0,0,1-1.56.93c-.9.43-2.05.17-3-1.13s0-4.38,0-4.38,1.49-2.74,1.49-2.91-.55-.18-.89-.21a5.42,5.42,0,0,0-2.42,1.86s-.52,6,.88,7.08,2,.76,2,.76a4.79,4.79,0,0,1,.24,1.13c0,.41-.9,1.48.2,1.93s3-.66,3.29-1.83c-1.07.65-3.37,1.35-3.29.54C202.65,65.48,202.19,64.67,203.38,64.24Z" fill="url(#linear-gradient-41)" style="mix-blend-mode:multiply"/><path d="M198.14,56.28c.6.72,1.23,1.31,3.94,1.28a8.36,8.36,0,0,0,2.72-.21l.34,1.54s1.33-1,1.68-.06-1.3,1.82-1.3,1.82a4.5,4.5,0,0,1,.61,1.39,13,13,0,0,1,.31,2,41.1,41.1,0,0,1,2-5.52c1.1-2.26,0-6.51-4-5.81-3.3.57-2.55-1.62-5-1.07S197.22,55.19,198.14,56.28Z" fill="url(#linear-gradient-42)"/><path d="M208.47,58.54c1.1-2.26,0-6.51-4-5.81-3.3.57-2.55-1.62-5-1.07s-2.22,3.53-1.3,4.62c.53.63,1.09,1.17,3.08,1.26-.93-.39-3.4-1.62-2.67-3.54.89-2.34,3,.09,5.06-.29s5.64.91,4.64,5.3C208.32,58.85,208.39,58.69,208.47,58.54Z" fill="url(#linear-gradient-43)" style="mix-blend-mode:multiply"/><path d="M202.77,67.94s.09-1.12,1-1.33a4.83,4.83,0,0,0,2.54-1.56c.32-.47.14.37.14.37S206,67.77,202.77,67.94Z" fill="url(#linear-gradient-44)"/><path d="M202.77,67.94s.34-.92-.22-1.35c-.3-.23-.21-1-.21-1l-.35.07a1.09,1.09,0,0,0-.23,1.25A2,2,0,0,0,202.77,67.94Z" fill="url(#linear-gradient-45)"/><path d="M208,84c.94-.22,1.8-2.16,2.23-3.49a2,2,0,0,0,1.07-.29A46.3,46.3,0,0,0,212.72,74c.07-1.55-.56-5.69-2.23-6.39l-.08.09s1.44,3,0,7.46-4.51,6.65-6,7-12.67.52-13.88-.12-2.63-2.82-6.77-.72c-.06.17,0,.32.25.39.78.25,2-.69,3.4-.31s1,1.78,3.82,2S206.73,84.3,208,84Z" fill="url(#linear-gradient-46)" style="mix-blend-mode:multiply"/><path d="M222.51,99.68V86.09a1.2,1.2,0,0,0-1.19-1.2h-.4a1.21,1.21,0,0,0-1.2,1.2V99.68Z" fill="#083d33"/><path d="M223.61,116.49V100.76a2.14,2.14,0,0,0-2.14-2.14h-.7a2.16,2.16,0,0,0-2.15,2.14v15.73Z" fill="#0e5648"/><path d="M224.42,129.15v-13.6a2.84,2.84,0,0,0-2.83-2.83h-.94a2.84,2.84,0,0,0-2.83,2.83v13.6Z" fill="#157764"/><path d="M223.61,113.58V100.76a2.14,2.14,0,0,0-1.1-1.85V86.09a1.2,1.2,0,0,0-1.19-1.2h-.4a1.19,1.19,0,0,0-.9.44,1.17,1.17,0,0,1,.3.76V98.91a2.13,2.13,0,0,1,1.09,1.85v12.82a2.83,2.83,0,0,1,.82,2v13.6h2.19v-13.6A2.82,2.82,0,0,0,223.61,113.58Z" fill="url(#linear-gradient-47)" style="mix-blend-mode:multiply"/><path d="M159.15,83.48h53.92a1.16,1.16,0,0,1,1.16,1.16V85a1.17,1.17,0,0,1-1.17,1.17H159.14A1.16,1.16,0,0,1,158,85v-.38a1.17,1.17,0,0,1,1.17-1.17Z" fill="#22d1b3"/><path d="M210.72,83.48h20.79a1.17,1.17,0,0,1,1.17,1.17V85a1.17,1.17,0,0,1-1.17,1.17H210.72A1.16,1.16,0,0,1,209.56,85v-.39A1.16,1.16,0,0,1,210.72,83.48Z" fill="#0c5b4e"/><path d="M231.51,83.48H159.14A1.16,1.16,0,0,0,158,84.65V85a1.16,1.16,0,0,0,1.16,1.16h72.37A1.16,1.16,0,0,0,232.68,85v-.38A1.17,1.17,0,0,0,231.51,83.48Z" fill="url(#linear-gradient-48)" style="mix-blend-mode:multiply"/><path d="M193.55,72.73v4.08a1,1,0,0,1-1,1H159.76a1,1,0,0,1-1-1V72.73Z" fill="#eaeaea"/><path d="M191.8,76.81V53.68a1,1,0,0,0-1-1h1.74a1,1,0,0,1,1,1V76.81a1,1,0,0,1-1,1h-1.74A1,1,0,0,0,191.8,76.81Z" fill="url(#linear-gradient-49)"/><path d="M159.72,52.66h31a1,1,0,0,1,1,1V76.82a1,1,0,0,1-1,1h-31a1,1,0,0,1-1-1V53.68A1,1,0,0,1,159.72,52.66Z" fill="url(#linear-gradient-50)"/><path d="M170.84,83.41c-4.68,0,.64-14.86.64-14.86h6.71s-5.32,14.86-.64,14.86Z" fill="url(#linear-gradient-51)"/><path d="M181.45,82.48h-3.9a.63.63,0,0,1-.59-.28c-1-1.42,0-6.43,1.23-10.67v-3s-5.32,14.86-.64,14.86h3.9a.39.39,0,0,0,.39-.4v-.13A.39.39,0,0,0,181.45,82.48Z" fill="url(#linear-gradient-52)"/><path d="M202,78.06h-3.68a.57.57,0,0,0-.57.57v.21a1.91,1.91,0,1,0,0,3.81v.26a.58.58,0,0,0,.57.57H202a.57.57,0,0,0,.56-.57V78.63A.56.56,0,0,0,202,78.06Zm-5.43,2.69a1.21,1.21,0,0,1,1.18-1.06v2.12A1.22,1.22,0,0,1,196.53,80.75Z" fill="#003539"/><path d="M202,78.06h-3.68a.57.57,0,0,0-.57.57v.21a1.91,1.91,0,1,0,0,3.81v.26a.58.58,0,0,0,.57.57H202a.57.57,0,0,0,.56-.57V78.63A.56.56,0,0,0,202,78.06Zm-5.43,2.69a1.21,1.21,0,0,1,1.18-1.06v2.12A1.22,1.22,0,0,1,196.53,80.75Z" fill="url(#linear-gradient-53)" style="mix-blend-mode:multiply"/><path d="M227.61,76.2a9.69,9.69,0,0,1-5.45,3.49,9.66,9.66,0,0,1,1.12-6.37c1.81-2.72,5.45-3.49,5.45-3.49A9.66,9.66,0,0,1,227.61,76.2Z" fill="#809d37"/><path d="M224.84,76.16a35.75,35.75,0,0,1-2.68,3.53,33.77,33.77,0,0,1,2.22-3.84,34.84,34.84,0,0,1,2.68-3.52A34.2,34.2,0,0,1,224.84,76.16Z" fill="#5f732a"/><path d="M216.51,76.2A9.65,9.65,0,0,0,222,79.69a9.59,9.59,0,0,0-1.12-6.37,9.65,9.65,0,0,0-5.44-3.49A9.59,9.59,0,0,0,216.51,76.2Z" fill="#677c2c"/><path d="M219.27,76.16A35.75,35.75,0,0,0,222,79.69a34.55,34.55,0,0,0-2.21-3.84,35.74,35.74,0,0,0-2.69-3.52A36.2,36.2,0,0,0,219.27,76.16Z" fill="#197606"/><path d="M224.94,73.37c0,3.78-3,6.84-3,6.84s-3-3.06-3-6.84,3-6.85,3-6.85S224.94,69.59,224.94,73.37Z" fill="#a5cc42"/><path d="M222.26,75.1a40,40,0,0,1-.33,5.11,41,41,0,0,1,0-10.22A40,40,0,0,1,222.26,75.1Z" fill="#809d37"/><path d="M224.21,82.69a1.09,1.09,0,0,1-1,.79h-2.62a1.09,1.09,0,0,1-1-.79l-.86-3.51a.61.61,0,0,1,.61-.79h5.13a.61.61,0,0,1,.62.79Z"/><g style="mix-blend-mode:multiply"><path d="M223.44,82.69l-.87-3.51a.61.61,0,0,1,.28-.7,7.75,7.75,0,0,1-2.49-2.28,8.57,8.57,0,0,1-1.25-4.65,10.85,10.85,0,0,0-3.72-1.72,9.59,9.59,0,0,0,1.12,6.37A7.55,7.55,0,0,0,219,78.48a.59.59,0,0,0-.28.7l.86,3.51a1.09,1.09,0,0,0,1,.79h2.62a1.09,1.09,0,0,0,.62-.22A1.11,1.11,0,0,1,223.44,82.69Z" fill="url(#linear-gradient-54)"/></g><path d="M207.46,79.69a1.85,1.85,0,0,0-1.83,1.84v.12a1.84,1.84,0,0,0,1.83,1.83h10.06V79.69Z" fill="#f5f5f5"/><path d="M207.46,83.23a1.58,1.58,0,0,1-1.58-1.58v-.12a1.59,1.59,0,0,1,1.58-1.59l10.69-.06-.06-.19H207.46a1.85,1.85,0,0,0-1.83,1.84v.12a1.84,1.84,0,0,0,1.83,1.83h10.63v-.25Z" fill="#004f51"/><rect x="207.4" y="73.82" width="10.05" height="2.8" rx="0.98" ry="0.98" fill="#f5f5f5"/><path d="M210.4,73.82h-1.07a1.76,1.76,0,0,0-.2.81v1.18a1.76,1.76,0,0,0,.2.81h1.07a1.65,1.65,0,0,1-.2-.81V74.63A1.65,1.65,0,0,1,210.4,73.82Z" fill="#9b9b9b"/><path d="M214.46,73.82h1.07a1.76,1.76,0,0,1,.2.81v1.18a1.76,1.76,0,0,1-.2.81h-1.07a1.76,1.76,0,0,0,.2-.81V74.63A1.76,1.76,0,0,0,214.46,73.82Z" fill="#9b9b9b"/><path d="M207.46,79.69a1.85,1.85,0,0,0-1.83,1.84v.12a1.84,1.84,0,0,0,1.83,1.83h10.06V79.69Z" fill="#f5f5f5"/><path d="M212.13,80.1h-5.52v.06l5.52,0c1.8,0,3.59,0,5.39,0V80C215.72,80.05,213.92,80.09,212.13,80.1Zm2.71.31c-1,0-1.92,0-2.87,0-1.92,0-3.83,0-5.74-.11v.06c1.91.1,3.82.14,5.74.15.95,0,1.91,0,2.87,0l1.43,0c.42,0,.84,0,1.25,0v-.14l-1.25,0Zm-8.19,2.65v.06c1.83-.05,3.67-.08,5.5-.07s3.58,0,5.36.06V83c-1.78,0-3.57,0-5.35,0S208.49,83,206.65,83.06Zm-.83-1.2v.06c3.9,0,7.81,0,11.7.27v-.14C213.62,81.85,209.72,81.84,205.82,81.86Zm.1.47v.06c2,0,4,0,6,0s3.74.08,5.61.14v-.13c-1.87-.05-3.74-.08-5.61-.1S207.91,82.32,205.92,82.33Zm6,.35-5.79,0v.06l5.79,0c1.88,0,3.76,0,5.64.07v-.13C215.64,82.67,213.75,82.66,211.88,82.68Zm-6.11-1.16v0c2,0,4,0,6,0s3.83.07,5.75.13v-.14c-1.92,0-3.83-.08-5.75-.09S207.77,81.5,205.77,81.52Zm.21-.82v.06c3.85.1,7.7,0,11.54.2v-.14C213.67,80.65,209.83,80.78,206,80.7Zm5.88.41q-3,0-6-.11v.06q3,.15,6,.15c1.88,0,3.77,0,5.66.15v-.14C215.63,81.13,213.74,81.09,211.86,81.11Z" fill="#9b9b9b"/><path d="M207.46,83.23a1.58,1.58,0,0,1-1.58-1.58v-.12a1.59,1.59,0,0,1,1.58-1.59l10.69-.06-.06-.19H207.46a1.85,1.85,0,0,0-1.83,1.84v.12a1.84,1.84,0,0,0,1.83,1.83h10.63v-.25Z" fill="#004f51"/><path d="M216.2,79.52V76.86h1.72v-.25h-8.84a1.58,1.58,0,1,0,0,3.15h8.84v-.24Z" fill="#00383c"/><path d="M216.87,78.19a1.55,1.55,0,0,1,.8-1.33h-3a1.34,1.34,0,1,0,0,2.66h3A1.55,1.55,0,0,1,216.87,78.19Z" fill="#f5f5f5"/><path d="M217,78.79c-1.22,0-2.44,0-3.66,0l0,0c1.22,0,2.45,0,3.67,0A.3.3,0,0,1,217,78.79Zm.23.36s0-.05-.06-.08h0l-3.57,0s0,0,.05,0h3.61Zm.13.14c-1.14,0-2.29,0-3.43.06l.1.05c1.12,0,2.23,0,3.34,0h.08Zm-.47-.86c-1.23,0-2.46,0-3.69,0l0,0c1.22,0,2.45,0,3.68,0Zm.29-1.14c-1.19,0-2.37,0-3.56-.05,0,0,0,0-.05.05,1.18,0,2.37.08,3.55.08Zm-.15.23c-1.21,0-2.43,0-3.64,0l0,0c1.21,0,2.42,0,3.64,0Zm.32-.43.09-.07H214l-.1,0,3.49,0Zm-.44.73c-1.21,0-2.43,0-3.65,0l0,0c1.22.05,2.44.08,3.66.08C216.9,77.88,216.91,77.85,216.91,77.82Zm0,.37v-.06h-3.69v0h0l3.69,0Z" fill="#9b9b9b"/><path d="M210.54,76.61h-1.08a2.24,2.24,0,0,0-.62,1.58,2.2,2.2,0,0,0,.62,1.57h1.08a2.2,2.2,0,0,1-.62-1.57A2.24,2.24,0,0,1,210.54,76.61Z" fill="#001618"/><path d="M211.4,76.61h-.57a2.2,2.2,0,0,0-.63,1.58,2.16,2.16,0,0,0,.63,1.57h.57a2.2,2.2,0,0,1-.63-1.57A2.24,2.24,0,0,1,211.4,76.61Z" fill="#001618"/><path d="M208.88,81.65v-.12a1.85,1.85,0,0,1,1.83-1.84h1.15a1.6,1.6,0,0,1-1.24-1.5,1.65,1.65,0,0,1,1.66-1.57h-.65a1,1,0,0,1-1-1V74.8a1,1,0,0,1,1-1h-3.25a1,1,0,0,0-1,1v.84a1,1,0,0,0,1,1H209a1.65,1.65,0,0,0-1.66,1.57,1.6,1.6,0,0,0,1.23,1.5h-1.14a1.85,1.85,0,0,0-1.83,1.84v.12a1.84,1.84,0,0,0,1.83,1.83h3.25A1.84,1.84,0,0,1,208.88,81.65Z" fill="url(#linear-gradient-55)" style="mix-blend-mode:multiply"/><rect x="123.75" y="104" width="16.83" height="4.41" rx="1.89" ry="1.89" fill="#9cc965"/><path d="M144.56,104H131.51a1.89,1.89,0,0,0-1.89,1.89v.62a1.91,1.91,0,0,0,1.89,1.9h13.05a1.9,1.9,0,0,0,1.89-1.9v-.62A1.89,1.89,0,0,0,144.56,104Z" fill="#fff"/><rect x="132.07" y="104.57" width="11.92" height="1.05" rx="0.45" ry="0.45" fill="#98c364"/><path d="M132.86,107a.83.83,0,1,0-.83.83A.83.83,0,0,0,132.86,107Z" fill="#9cc965"/><path d="M135.26,107a.83.83,0,1,0-.83.83A.83.83,0,0,0,135.26,107Z" fill="#9cc965"/><path d="M137.66,107a.83.83,0,1,0-.83.83A.83.83,0,0,0,137.66,107Z" fill="#9cc965"/><path d="M140.07,107a.83.83,0,1,0-.83.83A.83.83,0,0,0,140.07,107Z" fill="#9cc965"/><path d="M142.47,107a.83.83,0,1,0-.83.83A.83.83,0,0,0,142.47,107Z" fill="#9cc965"/><path d="M144.87,107a.83.83,0,1,0-.83.83A.83.83,0,0,0,144.87,107Z" fill="#9cc965"/><path d="M122,96.68v-4.8a.37.37,0,1,0-.73,0v4.8Z"/><path d="M122.26,102.34V96.48a.66.66,0,0,0-1.31,0v5.86Z" fill="#6d8848"/><rect x="122.84" y="104.45" width="4.7" height="3.5" rx="1.5" ry="1.5" fill="#6d8848"/><path d="M123.62,107.1h-2a.92.92,0,0,1-.92-.92v-5.07a.93.93,0,1,1,1.85,0v4.14h1.09a.93.93,0,1,1,0,1.85Z" fill="#533825"/><path d="M164.75,72.88h-8a5.33,5.33,0,0,0-5.32,5.33V102.5a3.68,3.68,0,0,1-3.35,3.93H144a.7.7,0,1,0,0,1.39h4.05c2.61,0,4.74-2.39,4.74-5.32V78.21a3.94,3.94,0,0,1,3.93-3.94h8a.7.7,0,0,0,0-1.39Z" fill="#39f6f1"/><rect x="11.68" y="49.42" width="39.39" height="79.73" rx="4.73" ry="4.73" fill="#48aaba"/><path d="M16.41,129.15H46.34a4.72,4.72,0,0,0,4.71-4.53H11.7A4.74,4.74,0,0,0,16.41,129.15ZM46.34,49.42H16.41A4.74,4.74,0,0,0,11.7,54H51.05A4.72,4.72,0,0,0,46.34,49.42Z" fill="#c9c9c9" style="mix-blend-mode:multiply"/><rect x="39.33" y="49.42" width="43.64" height="79.73" rx="4.73" ry="4.73" fill="#305551"/><rect x="39.33" y="49.42" width="19.14" height="79.73" rx="4.73" ry="4.73" fill="#c9c9c9" style="mix-blend-mode:multiply"/><path d="M78.25,49.42H69.58a4.75,4.75,0,0,1,4.73,4.73v70.27a4.75,4.75,0,0,1-4.73,4.73h8.67A4.75,4.75,0,0,0,83,124.42V54.15A4.75,4.75,0,0,0,78.25,49.42Z" fill="#357478"/><g style="mix-blend-mode:multiply"><path d="M74.29,54H83a4.74,4.74,0,0,0-4.71-4.53H69.58A4.72,4.72,0,0,1,74.29,54Z" fill="#c9c9c9"/><path d="M83,124.62H74.29a4.72,4.72,0,0,1-4.71,4.53h8.67A4.74,4.74,0,0,0,83,124.62Z" fill="#c9c9c9"/></g><path d="M55.64,56.13h23a.95.95,0,0,1,.95.95v5.67a.95.95,0,0,1-.95.95h-23a.95.95,0,0,1-.95-.95V57.08A.94.94,0,0,1,55.64,56.13Z" fill="#3d7b79"/><path d="M77.42,62.77a.59.59,0,0,1-.59-.58V57.64a.59.59,0,0,1,.59-.58h.06a.57.57,0,0,1,.57.58v4.55a.57.57,0,0,1-.57.58Z" fill="#b0fbf9"/><rect x="74.91" y="57.06" width="1.22" height="5.71" rx="0.58" ry="0.58" fill="#b0fbf9"/><rect x="72.99" y="57.06" width="1.22" height="5.71" rx="0.58" ry="0.58" fill="#b0fbf9"/><rect x="71.07" y="57.06" width="1.22" height="5.71" rx="0.58" ry="0.58" fill="#b0fbf9"/><rect x="69.14" y="57.06" width="1.22" height="5.71" rx="0.58" ry="0.58" fill="#b0fbf9"/><rect x="67.22" y="57.06" width="1.22" height="5.71" rx="0.58" ry="0.58" fill="#b0fbf9"/><rect x="65.3" y="57.06" width="1.22" height="5.71" rx="0.58" ry="0.58" fill="#b0fbf9"/><rect x="63.38" y="57.06" width="1.22" height="5.71" rx="0.58" ry="0.58" fill="#b0fbf9"/><rect x="61.45" y="57.06" width="1.22" height="5.71" rx="0.58" ry="0.58" fill="#b0fbf9"/><rect x="57.53" y="57.42" width="3.07" height="3.07" fill="#167c72"/><path d="M59,62.07a.71.71,0,1,0-.71.7A.71.71,0,0,0,59,62.07Z" fill="#f6ac99"/><path d="M60.6,62.07a.71.71,0,1,0-.7.7A.7.7,0,0,0,60.6,62.07Z" fill="#5bc6d3"/><path d="M58.24,56.13h-2.6a1,1,0,0,0-1,.95v5.67a1,1,0,0,0,1,1h2.6Z" fill="#c9c9c9" style="mix-blend-mode:multiply"/><rect x="54.69" y="65.93" width="24.9" height="7.56" rx="0.95" ry="0.95" fill="#3d7b79"/><rect x="76.83" y="66.85" width="1.22" height="5.71" rx="0.58" ry="0.58" fill="#b0fbf9"/><rect x="74.91" y="66.85" width="1.22" height="5.71" rx="0.58" ry="0.58" fill="#b0fbf9"/><rect x="72.99" y="66.85" width="1.22" height="5.71" rx="0.58" ry="0.58" fill="#b0fbf9"/><rect x="71.07" y="66.85" width="1.22" height="5.71" rx="0.58" ry="0.58" fill="#b0fbf9"/><rect x="69.14" y="66.85" width="1.22" height="5.71" rx="0.58" ry="0.58" fill="#b0fbf9"/><rect x="67.22" y="66.85" width="1.22" height="5.71" rx="0.58" ry="0.58" fill="#b0fbf9"/><rect x="65.3" y="66.85" width="1.22" height="5.71" rx="0.58" ry="0.58" fill="#b0fbf9"/><rect x="63.38" y="66.85" width="1.22" height="5.71" rx="0.58" ry="0.58" fill="#b0fbf9"/><rect x="61.45" y="66.85" width="1.22" height="5.71" rx="0.58" ry="0.58" fill="#b0fbf9"/><rect x="57.53" y="67.21" width="3.07" height="3.07" fill="#167c72"/><path d="M59,71.85a.71.71,0,1,0-.71.71A.71.71,0,0,0,59,71.85Z" fill="#f6ac99"/><path d="M60.6,71.85a.71.71,0,1,0-1.41,0,.71.71,0,1,0,1.41,0Z" fill="#5bc6d3"/><path d="M58.24,65.93h-2.6a1,1,0,0,0-1,.94v5.67a1,1,0,0,0,1,.95h2.6Z" fill="#c9c9c9" style="mix-blend-mode:multiply"/><rect x="54.69" y="75.72" width="24.9" height="7.56" rx="0.95" ry="0.95" fill="#3d7b79"/><rect x="76.83" y="76.64" width="1.22" height="5.71" rx="0.58" ry="0.58" fill="#b0fbf9"/><rect x="74.91" y="76.64" width="1.22" height="5.71" rx="0.58" ry="0.58" fill="#b0fbf9"/><rect x="72.99" y="76.64" width="1.22" height="5.71" rx="0.58" ry="0.58" fill="#b0fbf9"/><rect x="71.07" y="76.64" width="1.22" height="5.71" rx="0.58" ry="0.58" fill="#b0fbf9"/><rect x="69.14" y="76.64" width="1.22" height="5.71" rx="0.58" ry="0.58" fill="#b0fbf9"/><rect x="67.22" y="76.64" width="1.22" height="5.71" rx="0.58" ry="0.58" fill="#b0fbf9"/><rect x="65.3" y="76.64" width="1.22" height="5.71" rx="0.58" ry="0.58" fill="#b0fbf9"/><rect x="63.38" y="76.64" width="1.22" height="5.71" rx="0.58" ry="0.58" fill="#b0fbf9"/><rect x="61.45" y="76.64" width="1.22" height="5.71" rx="0.58" ry="0.58" fill="#b0fbf9"/><rect x="57.53" y="76.99" width="3.07" height="3.07" fill="#167c72"/><path d="M59,81.64a.71.71,0,1,0-.71.71A.71.71,0,0,0,59,81.64Z" fill="#f6ac99"/><path d="M60.6,81.64a.71.71,0,1,0-1.41,0,.71.71,0,1,0,1.41,0Z" fill="#5bc6d3"/><path d="M58.24,75.72h-2.6a1,1,0,0,0-1,.94v5.67a1,1,0,0,0,1,1h2.6Z" fill="#c9c9c9" style="mix-blend-mode:multiply"/><path d="M54.69,92.13a1,1,0,0,0,1,.94h23a1,1,0,0,0,.94-.94V86.45a1,1,0,0,0-.94-1h-23a1,1,0,0,0-1,1Z" fill="#3d7b79"/><path d="M77.42,92.14a.59.59,0,0,1-.59-.57V87a.59.59,0,0,1,.59-.58h.06a.57.57,0,0,1,.57.58v4.56a.57.57,0,0,1-.57.57Z" fill="#b0fbf9"/><rect x="74.91" y="86.43" width="1.22" height="5.71" rx="0.58" ry="0.58" fill="#b0fbf9"/><rect x="72.99" y="86.43" width="1.22" height="5.71" rx="0.58" ry="0.58" fill="#b0fbf9"/><rect x="71.07" y="86.43" width="1.22" height="5.71" rx="0.58" ry="0.58" fill="#b0fbf9"/><rect x="69.14" y="86.43" width="1.22" height="5.71" rx="0.58" ry="0.58" fill="#b0fbf9"/><rect x="67.22" y="86.43" width="1.22" height="5.71" rx="0.58" ry="0.58" fill="#b0fbf9"/><rect x="65.3" y="86.43" width="1.22" height="5.71" rx="0.58" ry="0.58" fill="#b0fbf9"/><rect x="63.38" y="86.43" width="1.22" height="5.71" rx="0.58" ry="0.58" fill="#b0fbf9"/><rect x="61.45" y="86.43" width="1.22" height="5.71" rx="0.58" ry="0.58" fill="#b0fbf9"/><rect x="57.53" y="86.79" width="3.07" height="3.07" fill="#167c72"/><path d="M59,91.43a.71.71,0,1,0-.71.71A.71.71,0,0,0,59,91.43Z" fill="#f6ac99"/><circle cx="59.9" cy="91.43" r="0.71" fill="#5bc6d3"/><path d="M58.24,85.5h-2.6a1,1,0,0,0-1,1v5.68a1,1,0,0,0,1,.94h2.6Z" fill="#c9c9c9" style="mix-blend-mode:multiply"/><rect x="54.69" y="95.3" width="24.9" height="7.56" rx="0.95" ry="0.95" fill="#3d7b79"/><path d="M77.42,101.93a.59.59,0,0,1-.59-.57V96.8a.59.59,0,0,1,.59-.58h.06a.57.57,0,0,1,.57.58v4.56a.57.57,0,0,1-.57.57Z" fill="#b0fbf9"/><rect x="74.91" y="96.22" width="1.22" height="5.71" rx="0.58" ry="0.58" fill="#b0fbf9"/><rect x="72.99" y="96.22" width="1.22" height="5.71" rx="0.58" ry="0.58" fill="#b0fbf9"/><rect x="71.07" y="96.22" width="1.22" height="5.71" rx="0.58" ry="0.58" fill="#b0fbf9"/><rect x="69.14" y="96.22" width="1.22" height="5.71" rx="0.58" ry="0.58" fill="#b0fbf9"/><rect x="67.22" y="96.22" width="1.22" height="5.71" rx="0.58" ry="0.58" fill="#b0fbf9"/><rect x="65.3" y="96.22" width="1.22" height="5.71" rx="0.58" ry="0.58" fill="#b0fbf9"/><rect x="63.38" y="96.22" width="1.22" height="5.71" rx="0.58" ry="0.58" fill="#b0fbf9"/><rect x="61.45" y="96.22" width="1.22" height="5.71" rx="0.58" ry="0.58" fill="#b0fbf9"/><rect x="57.53" y="96.58" width="3.07" height="3.07" fill="#167c72"/><path d="M59,101.22a.71.71,0,0,0-1.42,0,.71.71,0,0,0,1.42,0Z" fill="#f6ac99"/><path d="M60.6,101.22a.71.71,0,1,0-1.41,0,.71.71,0,1,0,1.41,0Z" fill="#5bc6d3"/><path d="M58.24,95.3h-2.6a1,1,0,0,0-1,.94v5.67a1,1,0,0,0,1,1h2.6Z" fill="#c9c9c9" style="mix-blend-mode:multiply"/><path d="M55.64,105.09h23a.95.95,0,0,1,.95.95v5.67a.94.94,0,0,1-.94.94h-23a.95.95,0,0,1-.95-.95V106A.94.94,0,0,1,55.64,105.09Z" fill="#3d7b79"/><rect x="76.83" y="106.01" width="1.22" height="5.71" rx="0.58" ry="0.58" fill="#b0fbf9"/><rect x="74.91" y="106.01" width="1.22" height="5.71" rx="0.58" ry="0.58" fill="#b0fbf9"/><rect x="72.99" y="106.01" width="1.22" height="5.71" rx="0.58" ry="0.58" fill="#b0fbf9"/><rect x="71.07" y="106.01" width="1.22" height="5.71" rx="0.58" ry="0.58" fill="#b0fbf9"/><rect x="69.14" y="106.01" width="1.22" height="5.71" rx="0.58" ry="0.58" fill="#b0fbf9"/><rect x="67.22" y="106.01" width="1.22" height="5.71" rx="0.58" ry="0.58" fill="#b0fbf9"/><rect x="65.3" y="106.01" width="1.22" height="5.71" rx="0.58" ry="0.58" fill="#b0fbf9"/><rect x="63.38" y="106.01" width="1.22" height="5.71" rx="0.58" ry="0.58" fill="#b0fbf9"/><rect x="61.45" y="106.01" width="1.22" height="5.71" rx="0.58" ry="0.58" fill="#b0fbf9"/><rect x="57.53" y="106.37" width="3.07" height="3.07" fill="#167c72"/><path d="M59,111a.71.71,0,1,0-.71.71A.71.71,0,0,0,59,111Z" fill="#f6ac99"/><circle cx="59.9" cy="111.01" r="0.71" fill="#5bc6d3"/><path d="M58.24,105.09h-2.6a1,1,0,0,0-1,.94v5.67a1,1,0,0,0,1,1h2.6Z" fill="#c9c9c9" style="mix-blend-mode:multiply"/><path d="M55.64,114.88h23a.95.95,0,0,1,.95.95v5.67a.94.94,0,0,1-.94.94h-23a.95.95,0,0,1-.95-.95v-5.67A.95.95,0,0,1,55.64,114.88Z" fill="#3d7b79"/><rect x="76.83" y="115.8" width="1.22" height="5.71" rx="0.58" ry="0.58" fill="#b0fbf9"/><rect x="74.91" y="115.8" width="1.22" height="5.71" rx="0.58" ry="0.58" fill="#b0fbf9"/><rect x="72.99" y="115.8" width="1.22" height="5.71" rx="0.58" ry="0.58" fill="#b0fbf9"/><rect x="71.07" y="115.8" width="1.22" height="5.71" rx="0.58" ry="0.58" fill="#b0fbf9"/><rect x="69.14" y="115.8" width="1.22" height="5.71" rx="0.58" ry="0.58" fill="#b0fbf9"/><rect x="67.22" y="115.8" width="1.22" height="5.71" rx="0.58" ry="0.58" fill="#b0fbf9"/><rect x="65.3" y="115.8" width="1.22" height="5.71" rx="0.58" ry="0.58" fill="#b0fbf9"/><rect x="63.38" y="115.8" width="1.22" height="5.71" rx="0.58" ry="0.58" fill="#b0fbf9"/><rect x="61.45" y="115.8" width="1.22" height="5.71" rx="0.58" ry="0.58" fill="#b0fbf9"/><rect x="57.53" y="116.16" width="3.07" height="3.07" fill="#167c72"/><path d="M59,120.8a.71.71,0,1,0-.71.71A.71.71,0,0,0,59,120.8Z" fill="#f6ac99"/><path d="M60.6,120.8a.71.71,0,1,0-1.41,0,.71.71,0,1,0,1.41,0Z" fill="#5bc6d3"/><path d="M58.24,114.88h-2.6a1,1,0,0,0-1,.94v5.67a1,1,0,0,0,1,1h2.6Z" fill="#c9c9c9" style="mix-blend-mode:multiply"/><rect x="23.81" y="49.42" width="32.14" height="79.73" rx="4.73" ry="4.73" fill="#5bc6d3"/><rect x="32.9" y="93.63" width="13.97" height="14.09" rx="4.4" ry="4.4" fill="#1d7b79"/><rect x="34.47" y="95.19" width="10.84" height="10.96" rx="2.92" ry="2.92" fill="#f5f5f5"/><rect x="27.51" y="54.34" width="24.74" height="5.59" rx="2.66" ry="2.66" fill="#b0fbf9"/><rect x="32.2" y="69.2" width="15.37" height="1.23" rx="0.59" ry="0.59" fill="#4fb2c2"/><path d="M34.75,71.23H45a.58.58,0,0,1,.58.58v.06a.58.58,0,0,1-.58.58H34.75a.59.59,0,0,1-.59-.59v-.06A.59.59,0,0,1,34.75,71.23Z" fill="#4fb2c2"/><rect x="32.2" y="73.26" width="15.37" height="1.23" rx="0.59" ry="0.59" fill="#4fb2c2"/><path d="M34.75,75.29H45a.58.58,0,0,1,.58.58v.06a.58.58,0,0,1-.58.58H34.75a.59.59,0,0,1-.59-.59v-.06A.59.59,0,0,1,34.75,75.29Z" fill="#4fb2c2"/><rect x="32.2" y="77.32" width="15.37" height="1.23" rx="0.59" ry="0.59" fill="#4fb2c2"/><path d="M34.75,79.35H45a.58.58,0,0,1,.58.58V80a.58.58,0,0,1-.58.58H34.75a.59.59,0,0,1-.59-.59v-.06A.59.59,0,0,1,34.75,79.35Z" fill="#4fb2c2"/><rect x="32.2" y="81.38" width="15.37" height="1.23" rx="0.59" ry="0.59" fill="#4fb2c2"/><path d="M34.75,83.41H45a.58.58,0,0,1,.58.58v.06a.58.58,0,0,1-.58.58H34.75a.59.59,0,0,1-.59-.59V84A.59.59,0,0,1,34.75,83.41Z" fill="#4fb2c2"/><path d="M33.35,64.11A1.11,1.11,0,1,1,32.25,63,1.11,1.11,0,0,1,33.35,64.11Z" fill="#1d7b79"/><path d="M48.55,64.11A1.11,1.11,0,1,1,47.45,63,1.11,1.11,0,0,1,48.55,64.11Z" fill="#1d7b79"/><path d="M37.15,64.11A1.11,1.11,0,1,1,36.05,63,1.11,1.11,0,0,1,37.15,64.11Z" fill="#4f8381"/><path d="M41,64.11A1.11,1.11,0,1,1,39.85,63,1.11,1.11,0,0,1,41,64.11Z" fill="#b0fbf9"/><path d="M44.75,64.11A1.11,1.11,0,1,1,43.65,63,1.11,1.11,0,0,1,44.75,64.11Z" fill="#1d7b79"/><path d="M33.35,112.09a1.11,1.11,0,1,1-1.1-1.11A1.1,1.1,0,0,1,33.35,112.09Z" fill="#1d7b79"/><path d="M48.55,112.09a1.11,1.11,0,1,1-1.1-1.11A1.1,1.1,0,0,1,48.55,112.09Z" fill="#1d7b79"/><path d="M37.15,112.09a1.11,1.11,0,1,1-1.1-1.11A1.1,1.1,0,0,1,37.15,112.09Z" fill="#4f8381"/><path d="M41,112.09a1.11,1.11,0,1,1-1.1-1.11A1.1,1.1,0,0,1,41,112.09Z" fill="#b0fbf9"/><path d="M44.75,112.09a1.11,1.11,0,1,1-1.1-1.11A1.1,1.1,0,0,1,44.75,112.09Z" fill="#1d7b79"/><path d="M37.19,90a1.11,1.11,0,1,1-1.11-1.1A1.1,1.1,0,0,1,37.19,90Z" fill="#1d7b79"/><path d="M41,90a1.11,1.11,0,1,1-1.1-1.1A1.1,1.1,0,0,1,41,90Z" fill="#4f8381"/><path d="M44.79,90a1.11,1.11,0,1,1-1.1-1.1A1.1,1.1,0,0,1,44.79,90Z" fill="#b0fbf9"/><path d="M41.53,97.55a.42.42,0,0,0-.56.19.41.41,0,0,0,.19.56,2.63,2.63,0,1,1-2.29,0,.42.42,0,0,0-.37-.75,3.42,3.42,0,0,0-2,3.1,3.46,3.46,0,0,0,6.92,0A3.42,3.42,0,0,0,41.53,97.55Z" fill="#1d7b79"/><path d="M40,101.4a.42.42,0,0,0,.42-.42V96.82A.42.42,0,0,0,40,96.4a.42.42,0,0,0-.42.42V101A.42.42,0,0,0,40,101.4Z" fill="#1d7b79"/><path d="M83,124.42V54.15a4.74,4.74,0,0,0-1.46-3.4l-.08-.06a4.75,4.75,0,0,0-.6-.49l-.24-.13a5.61,5.61,0,0,0-.54-.29c-.15-.06-.31-.09-.47-.14s-.26-.09-.4-.12a4.92,4.92,0,0,0-.94-.1H16.41a4.92,4.92,0,0,0-.94.1,2.91,2.91,0,0,0-.39.12,2.57,2.57,0,0,0-.47.15,3.35,3.35,0,0,0-.53.28c-.08,0-.18.08-.26.13a5.38,5.38,0,0,0-.59.48l-.09.07a4.7,4.7,0,0,0-1.46,3.4v70.27a4.69,4.69,0,0,0,.89,2.73s0,0,0,0a4.93,4.93,0,0,0,.56.65l.12.1a6.12,6.12,0,0,0,.56.45c.09.06.19.1.29.16s.32.18.49.26.33.1.5.15a2.59,2.59,0,0,0,.37.11,4.17,4.17,0,0,0,.94.1H78.25a4.23,4.23,0,0,0,.94-.1,2.72,2.72,0,0,0,.38-.11c.16-.05.33-.09.49-.15s.34-.18.51-.27l.27-.15a5.2,5.2,0,0,0,.57-.46l.11-.09a4.44,4.44,0,0,0,.56-.66h0A4.74,4.74,0,0,0,83,124.42Z" fill="url(#linear-gradient-56)" style="mix-blend-mode:multiply"/><rect x="95.74" y="104" width="16.83" height="4.41" rx="1.89" ry="1.89" fill="#9cc965"/><rect x="89.87" y="104" width="16.83" height="4.41" rx="1.89" ry="1.89" fill="#fff"/><rect x="92.33" y="104.57" width="11.92" height="1.05" rx="0.45" ry="0.45" fill="#98c364"/><path d="M103.46,107a.83.83,0,1,1,.83.83A.83.83,0,0,1,103.46,107Z" fill="#9cc965"/><path d="M101.06,107a.83.83,0,1,1,.83.83A.83.83,0,0,1,101.06,107Z" fill="#9cc965"/><path d="M98.66,107a.83.83,0,1,1,.83.83A.83.83,0,0,1,98.66,107Z" fill="#9cc965"/><path d="M96.25,107a.83.83,0,1,1,.83.83A.83.83,0,0,1,96.25,107Z" fill="#9cc965"/><path d="M93.85,107a.83.83,0,1,1,.83.83A.83.83,0,0,1,93.85,107Z" fill="#9cc965"/><path d="M91.45,107a.83.83,0,1,1,.83.83A.83.83,0,0,1,91.45,107Z" fill="#9cc965"/><path d="M114.35,96.68v-4.8a.37.37,0,1,1,.73,0v4.8Z"/><path d="M114.06,102.34V96.48a.66.66,0,0,1,1.31,0v5.86Z" fill="#6d8848"/><rect x="108.78" y="104.45" width="4.7" height="3.5" rx="1.5" ry="1.5" fill="#6d8848"/><path d="M112.7,107.1h2a.92.92,0,0,0,.92-.92v-5.07a.93.93,0,1,0-1.85,0v4.14H112.7a.93.93,0,1,0,0,1.85Z" fill="#533825"/><rect x="95.74" y="104" width="16.83" height="4.41" rx="1.89" ry="1.89" fill="#9cc965"/><rect x="89.87" y="104" width="16.83" height="4.41" rx="1.89" ry="1.89" fill="#fff"/><rect x="92.33" y="104.57" width="11.92" height="1.05" rx="0.45" ry="0.45" fill="#98c364"/><path d="M103.46,107a.83.83,0,1,1,.83.83A.83.83,0,0,1,103.46,107Z" fill="#9cc965"/><path d="M101.06,107a.83.83,0,1,1,.83.83A.83.83,0,0,1,101.06,107Z" fill="#9cc965"/><path d="M98.66,107a.83.83,0,1,1,.83.83A.83.83,0,0,1,98.66,107Z" fill="#9cc965"/><path d="M96.25,107a.83.83,0,1,1,.83.83A.83.83,0,0,1,96.25,107Z" fill="#9cc965"/><path d="M93.85,107a.83.83,0,1,1,.83.83A.83.83,0,0,1,93.85,107Z" fill="#9cc965"/><path d="M91.45,107a.83.83,0,1,1,.83.83A.83.83,0,0,1,91.45,107Z" fill="#9cc965"/><path d="M114.35,96.68v-4.8a.37.37,0,1,1,.73,0v4.8Z"/><path d="M114.06,102.34V96.48a.66.66,0,0,1,1.31,0v5.86Z" fill="#6d8848"/><rect x="108.78" y="104.45" width="4.7" height="3.5" rx="1.5" ry="1.5" fill="#6d8848"/><path d="M112.7,107.1h2a.92.92,0,0,0,.92-.92v-5.07a.93.93,0,1,0-1.85,0v4.14H112.7a.93.93,0,1,0,0,1.85Z" fill="#533825"/><path d="M104.29,106.28H91.61a3.93,3.93,0,0,1-3.93-3.93V63.58a5.33,5.33,0,0,0-5.33-5.32H59.07a.7.7,0,1,0,0,1.39H82.35a3.94,3.94,0,0,1,3.94,3.93v5.9a5.88,5.88,0,0,0-3.94-1.43H59.11a.7.7,0,1,0,0,1.39H82.35c2.14,0,3.94,1.35,3.94,3v6.88a5.88,5.88,0,0,0-3.94-1.43H59.11a.7.7,0,1,0,0,1.39H82.35c2.14,0,3.94,1.36,3.94,3v6.87a5.93,5.93,0,0,0-3.94-1.43H59.11a.7.7,0,0,0-.7.7.69.69,0,0,0,.7.69H82.35c2.14,0,3.94,1.36,3.94,3v6.8a5.93,5.93,0,0,0-3.94-1.43H59.11a.7.7,0,1,0,0,1.39H82.35c2.14,0,3.94,1.36,3.94,3v.65A5.33,5.33,0,0,0,89,107l-.12.07H59.11a.69.69,0,1,0,0,1.38H87.34a5.31,5.31,0,0,0-1,3.17v2a4,4,0,0,1-3.94,3.94H59.07a.69.69,0,1,0,0,1.38H82.35a5.33,5.33,0,0,0,5.33-5.32v-2a3.94,3.94,0,0,1,3.93-3.93h12.68a.7.7,0,1,0,0-1.39Z" fill="#39f6f1"/><path d="M115.84,88.86h-1.92V84h1.92Zm0-8.67h-1.92V75.37h1.92Zm0-8.67h-1.92V66.71h1.92Zm0-8.67h-1.92V58h1.92Z" fill="#39f6f1"/><path d="M122.58,88.86h-1.92V84h1.92Zm0-8.67h-1.92V75.37h1.92Zm0-8.67h-1.92V66.71h1.92Zm0-8.67h-1.92V58h1.92Z" fill="#39f6f1"/><path d="M140.16,33.53h0a8.6,8.6,0,0,0-16.66,0h0a7.54,7.54,0,0,0,0,15.08h16.75a7.54,7.54,0,1,0,0-15.08Z" fill="url(#linear-gradient-57)"/><path d="M116.92,32.4h0a10.69,10.69,0,0,0-20.71,0h0a9.37,9.37,0,1,0,0,18.73h20.81a9.37,9.37,0,1,0,0-18.73Z" fill="url(#linear-gradient-58)"/><path d="M108.82,42.77l-.61-12.69A2.3,2.3,0,0,0,105.94,28H86.67a1.82,1.82,0,0,0-1.87,2.07l1.13,12.69Z" fill="#537304"/><path d="M108.58,27.48a1.07,1.07,0,0,0-1.06-1.07H87a1.07,1.07,0,0,0-1.06,1.07V42.77h22.65Z" fill="url(#linear-gradient-59)"/><path d="M109.92,24.81h-.17l.28-1.69a1,1,0,0,0-1-1.16h-7.38a1.41,1.41,0,0,0-1.34,1.16l-.26,1.69H90.54a2.52,2.52,0,0,0-2.41,2.13L86,42.77h22.9l2.76-15.83A1.74,1.74,0,0,0,109.92,24.81Z" fill="#9bca65"/><path d="M109.44,27.16h-8.63a.8.8,0,0,0-.77.66l0,.22a.56.56,0,0,0,.55.68h8.61A.83.83,0,0,0,110,28l0-.22A.54.54,0,0,0,109.44,27.16Z" fill="url(#linear-gradient-60)" style="mix-blend-mode:multiply"/><path d="M109,29.7h-8.6a.81.81,0,0,0-.76.67l0,.22a.55.55,0,0,0,.55.67h8.57a.82.82,0,0,0,.77-.67l0-.22A.54.54,0,0,0,109,29.7Z" fill="url(#linear-gradient-61)" style="mix-blend-mode:multiply"/><path d="M108.57,32.24H100a.8.8,0,0,0-.75.67l0,.22a.54.54,0,0,0,.54.67h8.54a.83.83,0,0,0,.77-.67l0-.22A.54.54,0,0,0,108.57,32.24Z" fill="url(#linear-gradient-62)" style="mix-blend-mode:multiply"/><path d="M108.14,34.79H89.6a.79.79,0,0,0-.74.67l0,.21a.56.56,0,0,0,.56.67h18.48a.82.82,0,0,0,.77-.67l0-.21A.55.55,0,0,0,108.14,34.79Z" fill="url(#linear-gradient-63)" style="mix-blend-mode:multiply"/><path d="M107.7,37.33H89.25a.79.79,0,0,0-.74.67l0,.22a.56.56,0,0,0,.56.67h18.4a.81.81,0,0,0,.76-.67l0-.22A.55.55,0,0,0,107.7,37.33Z" fill="url(#linear-gradient-64)" style="mix-blend-mode:multiply"/><path d="M107.27,39.87H88.9a.79.79,0,0,0-.74.67l0,.22a.56.56,0,0,0,.56.67H107a.83.83,0,0,0,.77-.67l0-.22A.54.54,0,0,0,107.27,39.87Z" fill="url(#linear-gradient-65)" style="mix-blend-mode:multiply"/><path d="M98.37,32.61a1.28,1.28,0,0,1-1.21,1.07H90.69a.9.9,0,0,1-.89-1.07l.63-4.6a1.26,1.26,0,0,1,1.21-1.07h6.54a.9.9,0,0,1,.9,1.07Z" fill="url(#linear-gradient-66)" style="mix-blend-mode:multiply"/><path d="M109.92,24.81h-.17l.28-1.69a1,1,0,0,0-1-1.16h-7.38a1.41,1.41,0,0,0-1.34,1.16l-.26,1.69H90.54a2.51,2.51,0,0,0-2.26,1.6H87a1.07,1.07,0,0,0-1.06,1.07v.68a1.8,1.8,0,0,0-1.13,1.92l1.13,12.69h23l2.76-15.83A1.74,1.74,0,0,0,109.92,24.81Z" fill="url(#linear-gradient-67)" style="mix-blend-mode:multiply"/></g><g id="cog_2"><g id="cog2"><path d="M144.34,31.8a6.45,6.45,0,1,1-8.81-2.39A6.45,6.45,0,0,1,144.34,31.8Z" fill="#a9e508"/><path d="M145.65,31.05a8,8,0,1,1-10.88-2.95A8,8,0,0,1,145.65,31.05Z" fill="#a9e508"/><path d="M138.56,28.92c.28.31.29.68,0,.83l-4.31,2.47c-.27.16-.58,0-.7-.43l-1.24-4.13a.89.89,0,0,1,.26-1l2-1.17a.88.88,0,0,1,1,.27Z" fill="#a9e508"/><path d="M138.91,41.1c-.28-.3-.29-.67,0-.82l4.31-2.47c.27-.16.58,0,.7.43l1.25,4.13a.9.9,0,0,1-.28,1l-2,1.17a.89.89,0,0,1-1-.27Z" fill="#a9e508"/><path d="M134.31,30.83c.41,0,.68.27.6.57l-1.31,4.79c-.08.3-.44.39-.8.2l-3.79-2a.9.9,0,0,1-.51-.9l.61-2.26a.88.88,0,0,1,.89-.52Z" fill="#a9e508"/><path d="M143.16,39.2c-.41,0-.68-.27-.59-.58l1.3-4.79c.08-.3.44-.38.8-.19l3.8,2a.87.87,0,0,1,.5.9l-.61,2.26a.89.89,0,0,1-.89.52Z" fill="#a9e508"/><path d="M132.65,35.19c.3-.28.66-.29.82,0l2.47,4.31c.16.27,0,.58-.43.7l-4.13,1.24a.86.86,0,0,1-1-.27l-1.18-2a.9.9,0,0,1,.27-1Z" fill="#a9e508"/><path d="M144.83,34.84c-.3.28-.67.29-.83,0l-2.47-4.31c-.15-.27,0-.58.43-.7l4.12-1.25a.89.89,0,0,1,1,.28l1.17,2a.89.89,0,0,1-.27,1Z" fill="#a9e508"/><path d="M134.55,39.44c0-.41.27-.68.57-.6l4.8,1.31c.29.07.38.44.18.8l-2,3.79a.89.89,0,0,1-.9.51l-2.26-.61a.89.89,0,0,1-.52-.9Z" fill="#a9e508"/><path d="M142.92,30.59c0,.4-.27.67-.57.59l-4.8-1.3c-.3-.08-.39-.44-.19-.8l2-3.8a.86.86,0,0,1,.9-.5l2.27.61a.9.9,0,0,1,.51.89Z" fill="#a9e508"/><path d="M142,33.13a3.8,3.8,0,1,1-5.18-1.41A3.79,3.79,0,0,1,142,33.13Z" fill="#537304"/><path d="M143,38.18a.4.4,0,0,1-.41,0,.38.38,0,0,1-.09-.53,4.6,4.6,0,0,0,.39-.68.38.38,0,0,1,.51-.18.38.38,0,0,1,.18.5,5.24,5.24,0,0,1-.46.79A.25.25,0,0,1,143,38.18Z" fill="#537304"/><path d="M143.81,36.14a.42.42,0,0,1-.25,0,.38.38,0,0,1-.31-.43,4.47,4.47,0,0,0-.18-2.18.38.38,0,0,1,.24-.48.37.37,0,0,1,.48.24,5.21,5.21,0,0,1,.21,2.54A.38.38,0,0,1,143.81,36.14Z" fill="#537304"/><path d="M142.85,32.33a.39.39,0,0,1-.49-.1,4.57,4.57,0,0,0-.68-.71.38.38,0,0,1,0-.54.37.37,0,0,1,.53,0,4.79,4.79,0,0,1,.79.83.37.37,0,0,1-.07.53Z" fill="#537304"/><path d="M139.23,30.4a.3.3,0,0,1-.21.05,4.6,4.6,0,0,0-2.56.6.39.39,0,0,1-.52-.14.4.4,0,0,1,.14-.52,5.4,5.4,0,0,1,3-.7.38.38,0,0,1,.16.71Z" fill="#537304"/><path d="M134.47,33.18a.39.39,0,0,1-.35,0,.37.37,0,0,1-.18-.51,5.06,5.06,0,0,1,1.15-1.56.37.37,0,0,1,.53,0,.39.39,0,0,1,0,.54,4.49,4.49,0,0,0-1,1.34A.39.39,0,0,1,134.47,33.18Z" fill="#537304"/><path d="M134,34.79a.37.37,0,0,1-.23.05.39.39,0,0,1-.34-.42,5.1,5.1,0,0,1,.13-.68.38.38,0,0,1,.46-.28.37.37,0,0,1,.27.46,5.58,5.58,0,0,0-.1.59A.36.36,0,0,1,134,34.79Z" fill="#537304"/><path d="M135.82,39.2a.4.4,0,0,1-.43,0,5.47,5.47,0,0,1-1.28-1.51,5,5,0,0,1-.54-1.36.36.36,0,0,1,.27-.45.38.38,0,0,1,.46.27,4.55,4.55,0,0,0,.47,1.17,4.67,4.67,0,0,0,1.1,1.28.39.39,0,0,1,0,.54A.43.43,0,0,1,135.82,39.2Z" fill="#537304"/><path d="M137.29,40a.42.42,0,0,1-.31,0,6.31,6.31,0,0,1-.75-.33.38.38,0,0,1-.16-.52.4.4,0,0,1,.52-.16,3.69,3.69,0,0,0,.64.29.39.39,0,0,1,.23.49A.41.41,0,0,1,137.29,40Z" fill="#537304"/><path d="M141.39,39.64a5.37,5.37,0,0,1-3.21.68.39.39,0,0,1-.34-.42.38.38,0,0,1,.42-.34,4.69,4.69,0,0,0,3.33-1,.39.39,0,0,1,.54.06.38.38,0,0,1-.06.53A5.46,5.46,0,0,1,141.39,39.64Z" fill="#537304"/><path d="M134.12,39.54a.2.2,0,0,1-.24,0,6.85,6.85,0,0,1-.88-1.2,6.65,6.65,0,0,1-.88-3.43.2.2,0,0,1,.2-.19.19.19,0,0,1,.18.19,6.24,6.24,0,0,0,.83,3.24,6.15,6.15,0,0,0,.83,1.14.18.18,0,0,1,0,.26Z" fill="#537304"/><path d="M139.43,41.57a.13.13,0,0,1-.08,0,6.64,6.64,0,0,1-4.42-1.18.19.19,0,0,1,.22-.3,6.23,6.23,0,0,0,4.17,1.1.19.19,0,0,1,.2.17A.17.17,0,0,1,139.43,41.57Z" fill="#537304"/><path d="M142,40.75a6.55,6.55,0,0,1-.8.39.19.19,0,0,1-.15-.35,5.33,5.33,0,0,0,.76-.37.19.19,0,0,1,.26.07A.18.18,0,0,1,142,40.75Z" fill="#537304"/><path d="M144.38,38.42a.19.19,0,0,1-.26-.26l.26-.49a.19.19,0,0,1,.25-.1.2.2,0,0,1,.09.26c-.08.17-.17.35-.27.52Z" fill="#537304"/><path d="M145.25,35.36a.19.19,0,0,1-.1,0,.19.19,0,0,1-.18-.2,6.22,6.22,0,0,0-.83-3.28.18.18,0,0,1,.07-.25.21.21,0,0,1,.27.07,6.62,6.62,0,0,1,.86,3.48A.16.16,0,0,1,145.25,35.36Z" fill="#537304"/><path d="M143.25,30.52a.18.18,0,0,1-.22,0l-.27-.24A.19.19,0,1,1,143,30l.29.26a.19.19,0,0,1,0,.27Z" fill="#537304"/><path d="M141.3,29.25a.17.17,0,0,1-.17,0,6.18,6.18,0,0,0-5.49.35.19.19,0,0,1-.19-.33,6.53,6.53,0,0,1,5.82-.37.19.19,0,0,1,.11.25A.24.24,0,0,1,141.3,29.25Z" fill="#537304"/><path d="M132.9,32.71a.2.2,0,0,1-.17,0,.19.19,0,0,1-.1-.25,6.56,6.56,0,0,1,.57-1.08.19.19,0,0,1,.26-.05.18.18,0,0,1,.06.26,5.53,5.53,0,0,0-.54,1A.24.24,0,0,1,132.9,32.71Z" fill="#537304"/><path d="M140.8,33.83a2.39,2.39,0,1,1-3.25-.88A2.37,2.37,0,0,1,140.8,33.83Z" fill="#b8ed34"/></g></g><g id="cog_1"><g id="cog1"><path d="M130.92,23a6.77,6.77,0,1,1-7.14-6.38A6.76,6.76,0,0,1,130.92,23Z" fill="#a9e508"/><path d="M126.35,18.68c.1.33,0,.62-.3.64l-4.22.23c-.26,0-.42-.25-.37-.6l.63-3.61a.77.77,0,0,1,.58-.65l2-.1a.74.74,0,0,1,.66.57Z" fill="#a9e508"/><path d="M122,28.06c-.09-.33,0-.62.3-.63l4.22-.24c.26,0,.43.25.37.6l-.63,3.61a.74.74,0,0,1-.58.64l-2,.11a.74.74,0,0,1-.65-.57Z" fill="#a9e508"/><path d="M122.39,18.51c.3.17.41.46.24.65l-2.82,3.16c-.17.19-.48.12-.68-.17l-2.11-3a.74.74,0,0,1,0-.87l1.33-1.49a.74.74,0,0,1,.87-.05Z" fill="#a9e508"/><path d="M125.93,28.23c-.3-.16-.41-.46-.24-.66l2.82-3.14c.17-.2.48-.13.68.16l2.11,3a.76.76,0,0,1,0,.87L130,29.94a.77.77,0,0,1-.87.06Z" fill="#a9e508"/><path d="M119.47,21.18c.34-.1.62,0,.63.3l.24,4.22c0,.26-.25.43-.6.37l-3.6-.63a.74.74,0,0,1-.65-.58l-.12-2a.75.75,0,0,1,.59-.65Z" fill="#a9e508"/><path d="M128.85,25.56c-.33.09-.62,0-.63-.3L128,21c0-.26.25-.43.6-.37l3.61.63a.74.74,0,0,1,.64.58l.12,2a.76.76,0,0,1-.59.65Z" fill="#a9e508"/><path d="M119.29,25.14c.18-.31.47-.41.67-.24l3.14,2.82c.2.17.13.48-.16.68l-3,2.11a.74.74,0,0,1-.87,0l-1.49-1.33a.75.75,0,0,1,0-.87Z" fill="#a9e508"/><path d="M129,21.6c-.16.3-.46.41-.66.23L125.22,19c-.21-.18-.13-.48.16-.68l3-2.11a.76.76,0,0,1,.87-.05l1.49,1.34a.75.75,0,0,1,.05.87Z" fill="#a9e508"/><path d="M129.12,23.09a5,5,0,1,1-5.24-4.68A5,5,0,0,1,129.12,23.09Z" fill="#537304"/><path d="M127.28,23.2a3.12,3.12,0,1,1-3.3-2.95A3.13,3.13,0,0,1,127.28,23.2Z" fill="#b8ed34"/><path d="M129.64,23.06a5.49,5.49,0,1,1-5.79-5.17A5.48,5.48,0,0,1,129.64,23.06Z" fill="#537304"/><path d="M127.09,23.21A2.93,2.93,0,1,1,124,20.44,2.93,2.93,0,0,1,127.09,23.21Z" fill="#b8ed34"/><path d="M125.74,23.28a1.58,1.58,0,1,1-1.66-1.49A1.59,1.59,0,0,1,125.74,23.28Z" fill="#b8ed34"/><path d="M126.1,27.23a.32.32,0,0,1-.29-.16.31.31,0,0,1,.12-.43,3.24,3.24,0,0,0,.53-.35.32.32,0,0,1,.44.06.31.31,0,0,1-.06.43,4.44,4.44,0,0,1-.62.41Z" fill="#a9e508"/><path d="M127.45,26a.36.36,0,0,1-.2-.06.31.31,0,0,1-.07-.43,3.71,3.71,0,0,0,.66-1.65.31.31,0,0,1,.35-.26.31.31,0,0,1,.27.35,4.37,4.37,0,0,1-.78,1.92A.32.32,0,0,1,127.45,26Z" fill="#a9e508"/><path d="M128.13,22.92a.31.31,0,0,1-.32-.26,3.93,3.93,0,0,0-.23-.76.31.31,0,0,1,.16-.41.31.31,0,0,1,.41.17,3.82,3.82,0,0,1,.27.89.31.31,0,0,1-.25.36Z" fill="#a9e508"/><path d="M126.2,20.19a.35.35,0,0,1-.17,0,3.59,3.59,0,0,0-2.08-.49.33.33,0,0,1-.33-.3.32.32,0,0,1,.29-.32,4.28,4.28,0,0,1,2.43.58.31.31,0,0,1,.12.42A.32.32,0,0,1,126.2,20.19Z" fill="#a9e508"/><path d="M121.72,20.48a.27.27,0,0,1-.26-.12.3.3,0,0,1,.05-.43,4.28,4.28,0,0,1,1.41-.72.31.31,0,0,1,.39.21.32.32,0,0,1-.21.38,3.66,3.66,0,0,0-1.21.62A.27.27,0,0,1,121.72,20.48Z" fill="#a9e508"/><path d="M120.79,21.49a.29.29,0,0,1-.18,0,.31.31,0,0,1-.09-.43,3.79,3.79,0,0,1,.34-.45.3.3,0,0,1,.43,0,.29.29,0,0,1,0,.43c-.1.13-.2.26-.29.4A.32.32,0,0,1,120.79,21.49Z" fill="#a9e508"/><path d="M120.51,25.36a.33.33,0,0,1-.3-.19,4.36,4.36,0,0,1-.38-1.56,4.78,4.78,0,0,1,.09-1.19.31.31,0,0,1,.61.14,3.45,3.45,0,0,0-.08,1,3.66,3.66,0,0,0,.32,1.35.32.32,0,0,1-.15.41Z" fill="#a9e508"/><path d="M121.28,26.48a.29.29,0,0,1-.24-.09,5.17,5.17,0,0,1-.42-.51.31.31,0,1,1,.5-.36,3.19,3.19,0,0,0,.37.44.31.31,0,0,1,0,.44A.28.28,0,0,1,121.28,26.48Z" fill="#a9e508"/><path d="M124.41,27.7a4.33,4.33,0,0,1-2.58-.67.31.31,0,0,1-.1-.43.32.32,0,0,1,.43-.09,3.85,3.85,0,0,0,2.78.5.31.31,0,1,1,.13.6A3.74,3.74,0,0,1,124.41,27.7Z" fill="#a9e508"/></g></g><g id="cloud"><g id="cloud-2" data-name="cloud"><path d="M107.37,53.49a10.23,10.23,0,0,1-.88-20.43,11.49,11.49,0,0,1,21.74,0,10.23,10.23,0,0,1-.88,20.43Z" fill="#fff"/><path d="M129.12,31.92a12.74,12.74,0,0,0-23.53,0,11.47,11.47,0,0,0,1.78,22.81h20a11.47,11.47,0,0,0,1.77-22.81Zm-1.77,20.33h-20a9,9,0,1,1,0-18h0a10.26,10.26,0,0,1,19.88,0h0a9,9,0,0,1,0,18Z" fill="#39f6f1"/><path d="M118,43a2.73,2.73,0,1,0,2.72,2.73A2.73,2.73,0,0,0,118,43Z" fill="#2fddd4"/><path d="M118,39.77a6.09,6.09,0,0,0-5.15,2.83.85.85,0,0,0,.26,1.16.84.84,0,0,0,1.16-.26,4.41,4.41,0,0,1,7.42,0,.84.84,0,1,0,1.41-.92A6.08,6.08,0,0,0,118,39.77Z" fill="#2fddd4"/><path d="M118,36.85a9.06,9.06,0,0,0-6.71,3A.84.84,0,1,0,112.54,41a7.3,7.3,0,0,1,10.88,0,.84.84,0,0,0,1.24-1.13A8.94,8.94,0,0,0,118,36.85Z" fill="#2fddd4"/><path d="M126.33,37a12.21,12.21,0,0,0-16.71,0,.83.83,0,0,0,0,1.18.84.84,0,0,0,.61.27.87.87,0,0,0,.58-.23,10.51,10.51,0,0,1,14.41,0A.84.84,0,1,0,126.33,37Z" fill="#2fddd4"/></g></g><g id="blobs"><circle id="blob8" cx="164.54" cy="73.55" r="2.11" fill="url(#radial-gradient-2)"/><circle id="blob7" cx="104.23" cy="106.95" r="2.11" fill="url(#radial-gradient-3)"/><circle id="blob6" cx="104.23" cy="106.95" r="2.11" fill="url(#radial-gradient-3)"/><circle id="blob5" cx="104.23" cy="106.95" r="2.11" fill="url(#radial-gradient-3)"/><circle id="blob4" cx="104.23" cy="106.95" r="2.11" fill="url(#radial-gradient-3)"/><circle id="blob3" cx="104.23" cy="106.95" r="2.11" fill="url(#radial-gradient-3)"/><circle id="blob2" cx="104.23" cy="106.95" r="2.11" fill="url(#radial-gradient-3)"/><circle id="blob1" cx="104.23" cy="106.95" r="2.11" fill="url(#radial-gradient-3)"/></g></g></svg>
