<?xml version="1.0" encoding="UTF-8"?><svg id="a" xmlns="http://www.w3.org/2000/svg" viewBox="0 0 400 83.34"><defs><style>.b{fill:#fff;}.c{fill:#a7c947;}</style></defs><g><path class="b" d="M251.05,70.7v-29.07h-5.9v-4.43h5.9v-1.02c0-1.8,.28-3.39,.85-4.78,.56-1.39,1.38-2.56,2.43-3.51,1.06-.95,2.35-1.67,3.87-2.15,1.52-.48,3.23-.73,5.14-.73,1.47,0,2.94,.18,4.39,.53l-.35,4.64c-.48-.08-1.03-.15-1.64-.2-.61-.05-1.21-.08-1.81-.08-2.07,0-3.67,.54-4.8,1.63-1.13,1.08-1.69,2.64-1.69,4.66v1.02h6.3v4.43h-6.3v29.07h-6.39Z"/><path class="b" d="M141.11,59.57c0-1.05-.18-1.98-.54-2.79-.36-.8-.99-1.54-1.9-2.21-.91-.67-2.14-1.3-3.68-1.89-1.54-.59-3.5-1.19-5.87-1.81-2.49-.64-4.74-1.37-6.75-2.18s-3.73-1.75-5.14-2.82c-1.42-1.06-2.5-2.28-3.26-3.64-.76-1.36-1.14-2.92-1.14-4.67s.41-3.38,1.23-4.88,1.97-2.8,3.47-3.9c1.5-1.1,3.29-1.97,5.39-2.58,2.09-.62,4.43-.93,7.01-.93,2.83,0,5.35,.38,7.56,1.15,2.21,.76,4.07,1.77,5.58,3.03,1.51,1.26,2.65,2.71,3.44,4.36,.78,1.65,1.17,3.35,1.17,5.11h-6.66c0-1.26-.22-2.42-.67-3.5s-1.13-2-2.05-2.79-2.07-1.39-3.45-1.83c-1.38-.43-3.02-.65-4.9-.65-1.77,0-3.31,.19-4.63,.56-1.31,.37-2.39,.88-3.25,1.53-.85,.65-1.48,1.42-1.9,2.31-.41,.89-.62,1.86-.62,2.91,0,.95,.22,1.82,.67,2.6,.45,.78,1.14,1.51,2.09,2.17,.94,.66,2.16,1.27,3.64,1.83,1.48,.56,3.26,1.09,5.33,1.61,2.85,.72,5.32,1.52,7.39,2.4,2.07,.88,3.78,1.87,5.13,2.99s2.35,2.36,3,3.75c.66,1.38,.98,2.95,.98,4.71s-.41,3.5-1.24,4.98c-.83,1.49-2.01,2.76-3.54,3.81-1.53,1.05-3.37,1.86-5.52,2.43-2.15,.57-4.55,.85-7.2,.85-1.54,0-3.08-.13-4.63-.39s-3.02-.64-4.44-1.16c-1.42-.52-2.73-1.16-3.94-1.92-1.21-.76-2.26-1.65-3.16-2.66-.9-1.01-1.6-2.15-2.11-3.41-.51-1.26-.76-2.64-.76-4.15h6.66c0,1.55,.34,2.87,1.02,3.98,.68,1.1,1.59,2.02,2.73,2.74,1.14,.72,2.45,1.25,3.94,1.59,1.48,.34,3.04,.51,4.68,.51,3.5,0,6.18-.64,8.04-1.92,1.86-1.28,2.8-3.02,2.8-5.23Z"/><path class="b" d="M167.42,66.91c1.13,0,2.21-.16,3.25-.5,1.04-.33,1.95-.78,2.74-1.36,.79-.58,1.44-1.26,1.93-2.06,.49-.79,.79-1.66,.88-2.58h6.04c-.09,1.49-.55,2.91-1.36,4.26-.82,1.35-1.89,2.54-3.23,3.56-1.34,1.02-2.88,1.84-4.64,2.45s-3.63,.91-5.61,.91c-2.81,0-5.25-.45-7.34-1.35s-3.82-2.11-5.2-3.64c-1.38-1.53-2.41-3.3-3.09-5.32-.68-2.02-1.02-4.16-1.02-6.41v-1.3c0-2.25,.34-4.38,1.02-6.41,.68-2.02,1.71-3.8,3.09-5.32,1.38-1.53,3.11-2.74,5.18-3.64,2.07-.9,4.51-1.35,7.32-1.35,2.19,0,4.17,.31,5.96,.93,1.78,.62,3.33,1.47,4.63,2.55s2.32,2.37,3.06,3.85c.74,1.49,1.15,3.09,1.24,4.8h-6.04c-.09-1.03-.36-2-.81-2.89s-1.05-1.68-1.81-2.35c-.76-.67-1.66-1.2-2.71-1.59-1.05-.39-2.22-.59-3.5-.59-1.98,0-3.62,.35-4.92,1.05-1.3,.7-2.35,1.63-3.14,2.77-.79,1.15-1.35,2.44-1.67,3.87-.32,1.43-.48,2.87-.48,4.32v1.3c0,1.49,.16,2.95,.48,4.38,.32,1.43,.87,2.72,1.66,3.85,.78,1.14,1.83,2.05,3.14,2.76,1.31,.7,2.97,1.05,4.97,1.05Z"/><path class="b" d="M206.16,66.11h23.82v4.86h-30.49V25.28h6.66v40.83Z"/><path class="b" d="M281.32,71.32c-2.6,0-4.96-.4-7.06-1.21-2.11-.81-3.91-1.92-5.4-3.36-1.5-1.43-2.65-3.14-3.45-5.12-.81-1.98-1.21-4.15-1.21-6.5v-1.3c0-2.72,.45-5.16,1.36-7.31,.91-2.15,2.12-3.95,3.64-5.42s3.26-2.58,5.21-3.36c1.96-.77,3.99-1.16,6.11-1.16,2.67,0,4.97,.42,6.91,1.25s3.53,1.99,4.78,3.45c1.25,1.47,2.18,3.2,2.78,5.2,.6,2,.9,4.18,.9,6.53v2.57h-25.31c.05,1.55,.33,2.99,.85,4.33,.52,1.34,1.25,2.51,2.21,3.5,.95,.99,2.11,1.77,3.45,2.35s2.87,.87,4.57,.87c2.26,0,4.17-.41,5.73-1.24,1.57-.83,2.93-1.92,4.11-3.28l3.9,2.72c-.6,.83-1.32,1.63-2.18,2.4-.85,.77-1.85,1.47-2.99,2.07-1.14,.61-2.45,1.09-3.92,1.46-1.47,.36-3.14,.54-5.01,.54Zm-.79-30.03c-1.29,0-2.48,.21-3.56,.63-1.08,.42-2.05,1.04-2.9,1.84-.85,.8-1.56,1.81-2.12,3-.56,1.2-.95,2.57-1.16,4.12h18.71v-.43c-.07-1.11-.27-2.22-.6-3.31-.33-1.09-.85-2.07-1.55-2.94-.7-.87-1.61-1.57-2.71-2.11-1.1-.54-2.48-.8-4.11-.8Z"/><path class="b" d="M307.04,65.84h23.82v4.86h-30.49V25.01h6.66v40.83Z"/><path class="b" d="M357.15,70.7c-.23-.41-.41-.93-.55-1.56-.14-.63-.25-1.28-.35-1.97-.6,.56-1.27,1.09-2.02,1.59-.75,.51-1.57,.95-2.45,1.33-.89,.38-1.85,.68-2.88,.9-1.04,.22-2.13,.32-3.28,.32-1.91,0-3.64-.26-5.2-.77-1.55-.52-2.88-1.22-3.97-2.11-1.09-.89-1.94-1.93-2.54-3.14-.6-1.21-.9-2.5-.9-3.88,0-1.8,.39-3.38,1.17-4.75,.78-1.37,1.9-2.52,3.37-3.45,1.46-.93,3.23-1.63,5.3-2.11,2.07-.47,4.39-.71,6.94-.71h6.35v-2.63c0-2-.67-3.6-2-4.78-1.34-1.19-3.3-1.78-5.9-1.78-1.2,0-2.29,.14-3.28,.43-.99,.29-1.84,.68-2.54,1.16-.7,.49-1.25,1.05-1.64,1.69-.39,.64-.59,1.31-.59,2.01h-6.42c0-1.2,.35-2.38,1.05-3.56,.7-1.18,1.7-2.23,2.99-3.17,1.29-.94,2.85-1.7,4.68-2.29,1.83-.59,3.87-.88,6.13-.88,2.03,0,3.9,.23,5.61,.7,1.71,.46,3.18,1.17,4.4,2.11,1.22,.94,2.18,2.11,2.87,3.51,.69,1.4,1.04,3.04,1.04,4.92v15.57c0,1.14,.11,2.33,.33,3.58,.22,1.25,.55,2.33,.98,3.23v.5h-6.7Zm-10.6-4.36c1.15,0,2.23-.14,3.25-.43,1.01-.29,1.93-.67,2.76-1.13,.83-.46,1.55-1,2.16-1.59,.61-.6,1.09-1.22,1.43-1.86v-6.87h-5.32c-3.66,0-6.48,.51-8.46,1.53-1.98,1.02-2.97,2.56-2.97,4.63,0,.81,.15,1.56,.45,2.26,.3,.7,.75,1.31,1.36,1.81,.61,.51,1.36,.91,2.24,1.21,.89,.3,1.92,.45,3.09,.45Z"/><path class="b" d="M400,54.32c0,2.46-.32,4.72-.97,6.79-.64,2.07-1.59,3.87-2.83,5.39-1.24,1.52-2.76,2.7-4.56,3.54s-3.84,1.27-6.15,1.27c-2.46,0-4.59-.39-6.39-1.16-1.8-.77-3.31-1.88-4.56-3.33l-.31,3.87h-5.87V25.01h6.39v15.88c1.24-1.38,2.74-2.45,4.49-3.19,1.75-.74,3.81-1.11,6.18-1.11s4.42,.41,6.23,1.24c1.81,.83,3.33,1.99,4.56,3.48,1.23,1.5,2.17,3.29,2.81,5.39,.64,2.09,.97,4.42,.97,6.98v.65Zm-6.39-.65c0-1.67-.17-3.25-.52-4.72-.35-1.48-.9-2.77-1.67-3.88s-1.78-2-3.02-2.65-2.76-.98-4.56-.98c-1.17,0-2.23,.13-3.18,.4-.94,.27-1.79,.64-2.54,1.11-.75,.48-1.4,1.03-1.95,1.67-.55,.64-1.02,1.33-1.42,2.07v14.49c.41,.74,.9,1.43,1.47,2.07s1.22,1.2,1.97,1.67c.75,.47,1.59,.85,2.54,1.11,.94,.27,2,.4,3.18,.4,1.73,0,3.2-.32,4.42-.96,1.22-.64,2.22-1.51,3-2.6,.78-1.09,1.36-2.38,1.73-3.85,.37-1.48,.55-3.05,.55-4.72v-.65Z"/><g><path class="b" d="M193.59,70.97h-6.39V37.47h6.39v33.49Z"/><circle class="b" cx="190.39" cy="29.04" r="3.76"/></g><g><circle class="b" cx="237.8" cy="28.77" r="3.76"/><path class="b" d="M241,70.7h-6.39V37.2h6.39v33.49Z"/></g></g><g><path class="c" d="M54.74,48.97c.65-1.42,.97-2.94,.96-4.47-.01-1.02-.17-2.04-.49-3.04h0c-.03-.08-.05-.16-.08-.24l-.03-.08s-.03-.1-.05-.15l-.03-.07c-.62-1.98-2.09-3.78-3.79-5.86-2.09-2.55-4.45-5.43-5.68-9.32-1.2-3.78-.91-7.3-.66-10.4,.22-2.65,.42-5.16-.31-7.47h0v-.07c-.03-.05-.04-.1-.06-.15l-.02-.08c-.02-.08-.05-.16-.07-.25-.05-.17-.11-.34-.17-.5,0-.02-.02-.05-.03-.07-.05-.14-.11-.28-.17-.42v-.02c-.96-2.2-2.62-4-4.78-5.12-2.16-1.12-4.59-1.46-6.94-.96h0c-.15,.03-.31,.07-.46,.11-.02,0-.04,0-.06,.01-.17,.04-.34,.09-.51,.15-2.67,.84-4.85,2.67-6.13,5.15-.16,.31-.31,.63-.43,.95-.51,1.28-.77,2.63-.75,3.99,.01,1.02,.17,2.04,.49,3.04h0c.03,.09,.05,.17,.08,.24l.03,.08,.02,.05,.03,.07,.02,.05,.02,.05c.61,1.97,2.08,3.77,3.79,5.85,2.09,2.55,4.45,5.44,5.68,9.33,1.23,3.9,.96,7.65,.71,10.96-.2,2.67-.37,4.97,.25,6.91h0l.02,.07c.01,.05,.03,.1,.04,.15l.02,.08c.02,.08,.05,.16,.07,.25,.04,.14,.09,.28,.14,.41,1.53,4.22,5.54,6.9,9.85,6.9,1.04,0,2.1-.16,3.15-.49,2.67-.84,4.85-2.67,6.13-5.15,.08-.16,.16-.31,.23-.47Z"/><path class="c" d="M86.16,22.65c-1.78-2.8-4.55-4.73-7.78-5.45-6.68-1.48-13.32,2.76-14.8,9.44-.02,.1-.04,.2-.06,.3l-.02,.1c-.01,.07-.03,.14-.04,.21h0v.05h0c-.54,2.4-.09,5.12,.42,8.27,.63,3.88,1.35,8.27,.3,13.02-1.05,4.76-3.57,8.46-5.79,11.73-1.79,2.63-3.33,4.9-3.84,7.26h0l-.02,.08c-.02,.06-.03,.12-.05,.18l-.03,.1c-.02,.1-.05,.2-.07,.3-.72,3.24-.13,6.56,1.65,9.35,1.78,2.8,4.55,4.73,7.78,5.45,.9,.2,1.81,.3,2.71,.3,2.34,0,4.63-.66,6.65-1.95,.7-.45,1.34-.95,1.93-1.51,1.76-1.68,2.98-3.84,3.52-6.27h0c.02-.1,.04-.2,.06-.3l.02-.1c.01-.07,.03-.14,.04-.21h0v-.06h0c.54-2.4,.09-5.13-.42-8.28-.63-3.87-1.35-8.26-.3-13,1.02-4.62,3.41-8.08,5.52-11.12,1.8-2.6,3.5-5.06,4.12-7.86v-.02l.02-.06c.02-.06,.03-.12,.05-.18l.03-.1c.02-.1,.05-.2,.07-.3,.72-3.24,.13-6.56-1.65-9.35Z"/><path class="c" d="M16.32,27.07c-2.65-1.38-5.67-1.64-8.51-.74-2.84,.9-5.17,2.85-6.54,5.5-1.38,2.65-1.64,5.67-.74,8.51,.9,2.84,2.85,5.17,5.5,6.54,1.61,.84,3.37,1.26,5.14,1.26,1.13,0,2.27-.17,3.37-.52,2.84-.9,5.17-2.85,6.54-5.5,1.38-2.65,1.64-5.67,.74-8.51-.9-2.84-2.85-5.17-5.5-6.54Z"/></g></svg>