<svg xmlns="http://www.w3.org/2000/svg" viewBox="0 0 400 83.34"><defs><style>.a{fill:#1d1d1b;}.b{fill:#a7c947;}</style></defs><path class="a" d="M253.55,73V43.9h-5.9V39.48h5.9v-1a12.54,12.54,0,0,1,.85-4.78,9.31,9.31,0,0,1,2.43-3.51A10.41,10.41,0,0,1,260.7,28a16.7,16.7,0,0,1,5.14-.73,18.12,18.12,0,0,1,4.39.53l-.35,4.64c-.48-.08-1-.15-1.64-.2s-1.21-.08-1.81-.08a6.63,6.63,0,0,0-4.8,1.63,6.13,6.13,0,0,0-1.69,4.65v1h6.3V43.9h-6.3V73Z" transform="translate(-2.5 -2.27)"/><path class="a" d="M143.61,61.85a6.77,6.77,0,0,0-.54-2.79,5.68,5.68,0,0,0-1.89-2.21A15.82,15.82,0,0,0,137.5,55a57.74,57.74,0,0,0-5.87-1.81A54.18,54.18,0,0,1,124.88,51a23.07,23.07,0,0,1-5.15-2.82,11.75,11.75,0,0,1-3.26-3.64,9.42,9.42,0,0,1-1.14-4.67A10,10,0,0,1,116.56,35a12,12,0,0,1,3.47-3.9,17.24,17.24,0,0,1,5.38-2.58,24.68,24.68,0,0,1,7-.93A23.19,23.19,0,0,1,140,28.69a17.7,17.7,0,0,1,5.58,3A12.89,12.89,0,0,1,149,36.09a11.85,11.85,0,0,1,1.17,5.11h-6.66a9,9,0,0,0-.68-3.5,7.33,7.33,0,0,0-2.05-2.78,9.61,9.61,0,0,0-3.45-1.83A19.09,19.09,0,0,0,127.8,33a9.53,9.53,0,0,0-3.25,1.53,6.29,6.29,0,0,0-1.9,2.3,6.87,6.87,0,0,0-.62,2.91,5.11,5.11,0,0,0,.67,2.6,6.89,6.89,0,0,0,2.09,2.17,16.86,16.86,0,0,0,3.64,1.83A50.17,50.17,0,0,0,133.77,48a51,51,0,0,1,7.39,2.4,20.64,20.64,0,0,1,5.13,3,11.2,11.2,0,0,1,3,3.75,10.77,10.77,0,0,1,1,4.7,10.07,10.07,0,0,1-1.24,5,11.43,11.43,0,0,1-3.54,3.81A17.69,17.69,0,0,1,140,73a28.67,28.67,0,0,1-7.2.85,27.82,27.82,0,0,1-4.63-.39,25,25,0,0,1-4.44-1.16,21.07,21.07,0,0,1-3.93-1.92,14.62,14.62,0,0,1-3.16-2.66,11.66,11.66,0,0,1-2.11-3.41,11.14,11.14,0,0,1-.76-4.15h6.67a7.43,7.43,0,0,0,1,4,8.28,8.28,0,0,0,2.72,2.74,12.54,12.54,0,0,0,3.94,1.6,20.85,20.85,0,0,0,4.68.51q5.25,0,8-1.92A6,6,0,0,0,143.61,61.85Z" transform="translate(-2.5 -2.27)"/><path class="a" d="M169.92,69.18a10.66,10.66,0,0,0,3.25-.49,9.75,9.75,0,0,0,2.74-1.36,7.43,7.43,0,0,0,1.94-2.06,6,6,0,0,0,.88-2.59h6a9.29,9.29,0,0,1-1.36,4.26,13,13,0,0,1-3.23,3.56,16.31,16.31,0,0,1-4.65,2.44,17,17,0,0,1-5.61.92,18.42,18.42,0,0,1-7.34-1.35,14.54,14.54,0,0,1-8.28-9,20,20,0,0,1-1-6.41v-1.3a20,20,0,0,1,1-6.41,15,15,0,0,1,3.09-5.32,14.81,14.81,0,0,1,5.18-3.64,18.26,18.26,0,0,1,7.32-1.34,18,18,0,0,1,6,.92,14.5,14.5,0,0,1,4.63,2.56,11.86,11.86,0,0,1,3.06,3.85,12.27,12.27,0,0,1,1.24,4.8h-6a8.08,8.08,0,0,0-.81-2.89A7.74,7.74,0,0,0,176.1,46a8.54,8.54,0,0,0-2.71-1.59,9.92,9.92,0,0,0-3.5-.59A10.3,10.3,0,0,0,165,44.88a8.88,8.88,0,0,0-3.14,2.77,10.85,10.85,0,0,0-1.68,3.87,19.86,19.86,0,0,0-.48,4.32v1.3a20,20,0,0,0,.48,4.38,11,11,0,0,0,1.66,3.86A8.76,8.76,0,0,0,165,68.13,10.49,10.49,0,0,0,169.92,69.18Z" transform="translate(-2.5 -2.27)"/><path class="a" d="M208.66,68.38h23.82v4.86H202V27.55h6.67Z" transform="translate(-2.5 -2.27)"/><path class="a" d="M283.82,73.59a19.55,19.55,0,0,1-7.06-1.21,15.64,15.64,0,0,1-5.4-3.36,14.63,14.63,0,0,1-3.46-5.12,17.21,17.21,0,0,1-1.21-6.5V56.1a18.57,18.57,0,0,1,1.37-7.31,16.16,16.16,0,0,1,3.64-5.41A15.69,15.69,0,0,1,276.92,40,16.31,16.31,0,0,1,283,38.86a17.22,17.22,0,0,1,6.9,1.25,12.94,12.94,0,0,1,4.78,3.45,14.08,14.08,0,0,1,2.78,5.2,22.65,22.65,0,0,1,.9,6.53v2.57H273.08a13.09,13.09,0,0,0,.85,4.34,10.3,10.3,0,0,0,5.66,5.85,11.47,11.47,0,0,0,4.58.86,12.25,12.25,0,0,0,5.73-1.23A14.14,14.14,0,0,0,294,64.39l3.9,2.73a16.56,16.56,0,0,1-2.18,2.4,14.83,14.83,0,0,1-3,2.07,16.73,16.73,0,0,1-3.92,1.46A21.19,21.19,0,0,1,283.82,73.59Zm-.79-30a9.55,9.55,0,0,0-3.56.64,8.77,8.77,0,0,0-2.9,1.84,9.7,9.7,0,0,0-2.12,3,13.89,13.89,0,0,0-1.16,4.12H292v-.44a14.69,14.69,0,0,0-.6-3.31,8.65,8.65,0,0,0-1.55-2.94,7.81,7.81,0,0,0-2.71-2.1A9.35,9.35,0,0,0,283,43.56Z" transform="translate(-2.5 -2.27)"/><path class="a" d="M309.54,68.11h23.82V73H302.87V27.28h6.67Z" transform="translate(-2.5 -2.27)"/><path class="a" d="M359.65,73a5.76,5.76,0,0,1-.55-1.56c-.14-.63-.25-1.29-.35-2a15.76,15.76,0,0,1-2,1.59,14.69,14.69,0,0,1-2.45,1.34,14.48,14.48,0,0,1-2.88.89,15.79,15.79,0,0,1-3.28.33,16.36,16.36,0,0,1-5.2-.78,12.29,12.29,0,0,1-4-2.1,9.55,9.55,0,0,1-2.54-3.14,8.74,8.74,0,0,1-.89-3.89,9.45,9.45,0,0,1,1.17-4.75,9.82,9.82,0,0,1,3.37-3.45,16.93,16.93,0,0,1,5.3-2.11,31.38,31.38,0,0,1,6.94-.71h6.35V50a6.1,6.1,0,0,0-2-4.78q-2-1.78-5.91-1.78a11.68,11.68,0,0,0-3.28.43,8.83,8.83,0,0,0-2.53,1.16,5.59,5.59,0,0,0-1.64,1.69,3.72,3.72,0,0,0-.59,2h-6.42a6.93,6.93,0,0,1,1.05-3.56,10.88,10.88,0,0,1,3-3.17A16.27,16.27,0,0,1,345,39.74a20,20,0,0,1,6.13-.88,21.55,21.55,0,0,1,5.61.69,12.55,12.55,0,0,1,4.41,2.11A9.87,9.87,0,0,1,364,45.17a11.07,11.07,0,0,1,1,4.92V65.66a20.64,20.64,0,0,0,.33,3.58,11.82,11.82,0,0,0,1,3.23V73Zm-10.6-4.37a11.82,11.82,0,0,0,3.25-.43A12.66,12.66,0,0,0,355.06,67a9.9,9.9,0,0,0,2.16-1.59,7.73,7.73,0,0,0,1.43-1.86V56.72h-5.32q-5.49,0-8.46,1.53a4.93,4.93,0,0,0-3,4.63,5.7,5.7,0,0,0,.45,2.26A4.81,4.81,0,0,0,343.72,67,7.15,7.15,0,0,0,346,68.16,9.68,9.68,0,0,0,349.05,68.6Z" transform="translate(-2.5 -2.27)"/><path class="a" d="M402.5,56.59a22.67,22.67,0,0,1-1,6.8,15.7,15.7,0,0,1-2.83,5.38,12.92,12.92,0,0,1-4.56,3.55A14.31,14.31,0,0,1,388,73.59a16.13,16.13,0,0,1-6.39-1.16,12.64,12.64,0,0,1-4.56-3.33L376.74,73h-5.87V27.28h6.39V43.16A12.53,12.53,0,0,1,381.75,40a15.79,15.79,0,0,1,6.18-1.11,14.93,14.93,0,0,1,6.23,1.23,12.59,12.59,0,0,1,4.56,3.49A15.47,15.47,0,0,1,401.53,49a23.55,23.55,0,0,1,1,7Zm-6.39-.65a20.44,20.44,0,0,0-.52-4.72,11.16,11.16,0,0,0-1.67-3.88,8.24,8.24,0,0,0-3-2.65,9.73,9.73,0,0,0-4.56-1,11.63,11.63,0,0,0-3.18.4,9.7,9.7,0,0,0-2.53,1.11,9,9,0,0,0-1.95,1.67A10.78,10.78,0,0,0,377.26,49V63.47a11.44,11.44,0,0,0,1.47,2.07,8.85,8.85,0,0,0,2,1.67,9.39,9.39,0,0,0,2.53,1.12,12,12,0,0,0,3.18.4,9.4,9.4,0,0,0,4.42-1,8.48,8.48,0,0,0,3-2.6,11.16,11.16,0,0,0,1.73-3.86,19.27,19.27,0,0,0,.55-4.72Z" transform="translate(-2.5 -2.27)"/><path class="a" d="M196.09,73.24h-6.38V39.74h6.38Z" transform="translate(-2.5 -2.27)"/><circle class="a" cx="190.39" cy="29.04" r="3.76"/><circle class="a" cx="237.8" cy="28.77" r="3.76"/><path class="a" d="M243.5,73h-6.39V39.48h6.39Z" transform="translate(-2.5 -2.27)"/><path class="b" d="M57.24,51.24a10.37,10.37,0,0,0,.47-7.51h0c0-.08-.05-.16-.08-.24l0-.08s0-.1-.05-.14l0-.07c-.62-2-2.09-3.78-3.79-5.86-2.09-2.55-4.45-5.44-5.68-9.32s-.91-7.3-.66-10.4c.22-2.65.42-5.16-.3-7.47h0v-.05a.94.94,0,0,1,0-.16l0-.08-.07-.25c0-.17-.11-.34-.17-.5l0-.07c-.06-.15-.11-.29-.17-.43h0A10.48,10.48,0,0,0,34.83,2.49h0l-.46.11-.06,0-.52.14a10.45,10.45,0,0,0-6.13,5.16c-.16.31-.31.62-.44.94a10.58,10.58,0,0,0-.75,4A11,11,0,0,0,27,15.9h0c0,.08.05.16.07.24l0,.08,0,.05,0,.07v.05l0,.05c.62,2,2.09,3.77,3.79,5.85,2.09,2.55,4.45,5.44,5.68,9.33s1,7.65.72,11c-.2,2.67-.37,5,.25,6.91h0l0,.06a.83.83,0,0,0,0,.15l0,.09a2.25,2.25,0,0,0,.08.24c0,.14.09.28.13.42a10.46,10.46,0,0,0,13,6.41A10.34,10.34,0,0,0,57,51.71,4.09,4.09,0,0,0,57.24,51.24Z" transform="translate(-2.5 -2.27)"/><path class="b" d="M88.66,24.93a12.41,12.41,0,0,0-22.58,4l-.06.3,0,.1c0,.07,0,.14,0,.2h0v0h0c-.54,2.39-.09,5.11.43,8.26.63,3.88,1.35,8.27.3,13s-3.57,8.46-5.79,11.73c-1.79,2.63-3.33,4.9-3.85,7.25v0l0,.06a1.33,1.33,0,0,1-.05.19l0,.1c0,.1-.05.19-.07.29A12.41,12.41,0,0,0,75.67,83.66a12.49,12.49,0,0,0,1.93-1.51,12.35,12.35,0,0,0,3.52-6.27h0l.06-.29,0-.1a1.55,1.55,0,0,1,0-.21h0v-.05h0c.54-2.4.09-5.13-.43-8.28-.63-3.87-1.35-8.26-.3-13S83.93,45.85,86,42.8c1.8-2.6,3.5-5.06,4.12-7.86v-.08a1.21,1.21,0,0,0,0-.18l0-.1c0-.1,0-.2.07-.3A12.31,12.31,0,0,0,88.66,24.93Z" transform="translate(-2.5 -2.27)"/><path class="b" d="M18.82,29.34a11.16,11.16,0,1,0-5.16,21.07A11.17,11.17,0,0,0,17,49.89a11.16,11.16,0,0,0,1.79-20.55Z" transform="translate(-2.5 -2.27)"/></svg>